<!-- MIT License (MIT) Copyright (c) 2018 Bernhard Grünewaldt -->
<svg viewBox="0 0 900 904" xmlns="http://www.w3.org/2000/svg" fill-rule="evenodd" clip-rule="evenodd" stroke-linecap="round" stroke-linejoin="round" stroke-miterlimit="1.5"><ellipse cx="1420.06" cy="1385.77" rx="189.242" ry="202.016" fill="#fff" stroke="#000" stroke-width="15.13" transform="translate(-1070.46 -733.418)"/><path d="M185.49 512.128c0 3.27 1.75 4.13 3 1 9.85-24.62 15.23-51.41 17-78 2.73-40.97-2.62-139.75 14-173 .49-.983-34.64-2.519-38-3-21.17-3.025-46.47-11.472-62-27-29.35-29.349-17.45-83.718 8-112 25.71-28.565 69.74-57.077 110-45 14.82 4.447 30.82 17.915 39 31 3.36 5.376 5.67 11.189 8 17 .94 2.357 1.2 8.795 3 7 5.9-5.898 13.58-36.179 22-47 38.59-49.612 116.1-66.564 171-37 31.75 17.097 50.75 62.757 39 98-.91 2.72-7.03 4.972-5 7 .27.265 2.59 0 3 0 7.72 0 8.53-17.265 16-21 7.29-3.647 14.71-6.952 22-11 35.9-19.944 85.79-26.269 114 10 54.25 69.751-32.36 124.785-90 144-9.3 3.099-52.39 6.392-57 11-2.18 2.176-1 59.47-1 63 0 45.6-4.54 90.24-12 135-2.22 13.31 10.54 32.91 5 44-4.21 8.41-69.46 11-82 11-29.61 0-57.87-8.36-87-12-10.3-1.29-20.13 2.36-30 4-9.66 1.61-88.66-1.66-98-4-10.97-2.74-24.06-8-33-8" fill="#fff" stroke="#000" stroke-width="22.56"/><path d="M1358 962c-4.38-4.384-1.44 28.731-2 36-2.02 26.28-8 63.9-8 84" fill="none" stroke="#000" stroke-width="18.16" transform="matrix(.39747 0 0 1.05505 -247.499 -691.732)"/><path d="M1445 955c-3.41 3.413.81 15.12 0 20-3.89 23.36-5.35 21.763-10 45-1.03 5.16-6 56.98-6 64" fill="none" stroke="#000" stroke-width="19.73" transform="matrix(.41507 0 0 1.00229 -231.686 -639.171)"/><path d="M1503.83 964.608c0 26.92-2.53 51.822-4.83 79.392-1.08 12.96-3 25.98-3 39 0 1.78 2.87 11 0 11" fill="none" stroke="#000" stroke-width="17.72" transform="matrix(.5769 0 0 1.04889 -425.311 -696.859)"/><path d="M239.83 629.163c0-22.89 42.37-32.92 59.61-37.84 7.51-2.15 13.89-4.49 23.66-7.57M399.74 580.913c-2-2.01 3.16-.95 4.73-.95 12.74 0 69.52 1.93 80.52 5.1M282.41 628.223c0-.72-2.67-3.01-3.78-1.9-2.6 2.6 28.49 5.13 31.22 4.74 12.65-1.81 27.5-5.85 38.8-14.2M408.26 615.923c12.08 7.87 58.43 5.9 72.86-8.52" fill="none" stroke="#000" stroke-width="15.13"/><path d="M1336.79 1357.85c0 7.94-2.43 30.01 5.68 34.07 8.96 4.48 64.25-17.33 75.69-19.87 11.99-2.67 21.74-9.46 33.12-13.25" fill="none" stroke="#000" stroke-width="17.96" transform="matrix(.80044 -.01528 .01683 .88189 -812.762 -460.397)"/><path d="M407.79 705.664c4.55 0 25.49-10.25 34.3-14.29 27.43-12.57 43.37-17.01 52.75-26.39 4.85-4.86-7.98-28.8-6.62-27.45" fill="none" stroke="#000" stroke-width="15.13"/><path d="M394.49 744.473c10.52 3.57 36.44 14.31 42.16 16.22.56.18 1.89-.49 1.89.94 0 1-2.01.4-2.84.95-11.04 7.36-30.69 6.08-39.74 15.14-1.17 1.16 6.86 2.49 7.57 2.84 5.34 2.67 34.83 12.88 33.58 13.39-9.98 4.07-44.21 14.05-43.04 14.05" fill="none" stroke="#000" stroke-width="8.55"/><path d="M797.107 491.134c-10.088 39.054-129.756 112.214-129.756 112.214s-64.553-128.264-23.102-174.787c28.79-32.315 59.328-11.098 67.859 15.852 7.35 23.179-5.394 50.722-5.394 50.722s12.628-30.299 37.37-43.464c28.329-15.074 63.6-1.489 53.023 39.463z" fill="#ff7070" stroke="#000" stroke-width="8.55"/><path d="M638.835 770.246l-106.383-14.009-47.58 7.54h-18.368c-4.796-15.22 41.91-38.384 48.725-42.932 34.923-23.271 52.261 1.293 92.557 8.199 11.388 1.953 31.05 26.097 31.05 41.202z" fill="#fff" stroke="#000" stroke-width="8.5535352"/><path d="M476.83 792.116c-5.893-3.33-18.229-6.51-16.3 13.745 2.497 26.262 14.124 35.293 29.822 44.39 15.722 9.098 23.452 13.004 39.743 22.744 35.97 21.532 63.534 14.998 83.36 0 21.384-16.16 27.268-18.689 30.094-57.872 1.335-18.393 2.678-39.95-2.645-41.499-8.109-2.373-43.27-35.483-57.675-38.252-14.412-2.777-35.755-6.081-43.212-3.6-18.747 6.254-58.969 24.004-71 37.048-8.133 8.81 3.28 20.61 21.335 15.772 14.56-3.897 36.15-25.669 58.877-15.772 16.325 7.095 16.432 35.384 6.164 51.206-11.47 17.7-16.283 16.983-36.216 5.29-11.66-6.84-22.101-12.632-28.825-19.455a76555.1 76555.1 0 0 0-13.523-13.745z" fill="#fff" stroke="#000" stroke-width="8.5535352"/></svg>
