<!-- MIT License (MIT) Copyright (c) 2018 Bernhard Grünewaldt -->
<svg width="809" height="714" xmlns="http://www.w3.org/2000/svg" style="background:#fff"><g fill="none" fill-rule="evenodd"><path d="M215.675 247.859c-2.064 7.838-2.28 14.985-3.675 26.141-2.261 18.09-1 36.798-1 55 0 36.83 2.89 73.33-2 110-1.652 12.39.434 31.46-.089 42.3" stroke="#000" stroke-width="13.13" stroke-linecap="round"/><path d="M209.032 483.67c8.377 4.51 99.138 7.95 148.588 7.95 30.59 0 61-5.46 89.38-5.62 29.81-.17 52.46-1.74 78-6 6.78-1.13 59.2-5.8 63-2M217 248c9.304 1.163 18.624 1.661 28 3 25.29 3.612 50.53 3.757 76 2 69.35-4.783 139.53-12 209-12h9c14.9 0 29.26-3 43-3 .36 0 5.8-.392 6 0 1.75 3.506 2.89 8.345 3.1 13.865.77 21.153-2.14 37.898-2.7 48.114-1.41 25.691.6 74.221.6 103.021 0 19.22-.35 38.23 2 57 .86 6.86-1.02 16.26-1.02 15.16" stroke="#000" stroke-width="14.13" stroke-linecap="round"/><path d="M288.948 248.711c0-69.133-10.61-114.872 45.71-157.596 15.46-11.726 37.19-20.045 100.976-11.78 57.088 7.397 85.328 91.472 83.738 160.356" stroke="#000" stroke-width="29.192"/><ellipse stroke="#000" stroke-width="6.25" fill="#FFF" cx="316.78" cy="324.962" rx="30.85" ry="29.323"/><ellipse stroke="#000" stroke-width="6.248" fill="#FFF" cx="480.102" cy="315.355" rx="26.847" ry="24.252"/><ellipse stroke="#000" stroke-width="6.25" fill="#000" cx="325.288" cy="336.862" rx="15.345" ry="13.477"/><ellipse stroke="#000" stroke-width="6.255" fill="#000" cx="475.921" cy="327.394" rx="8.232" ry="7.873"/><path d="M359.86 406.01c0 4.42 16.53-.87 18.21-1.37 17.98-5.28 36.27-9.98 54.64-13.65 6.83-1.37 13.71-1.95 20.49-3.65 2.11-.52 10.5-1.36 9.56-1.36" stroke="#000" stroke-width="6.25" stroke-linecap="round"/><path d="M382.172 406.925c-.76 0-.91 4.384-.91 4.384v3.356c0 6.07-1.54 15.77 3.18 20.49.88.87 5.15-.46 5.92-.46 5.57 0 15.26 1.02 20.04-1.37 2.46-1.23-2.85-23.73-4.1-26.86-1.26-3.15-1.82-10.02-1.82-10.02s.41 2.2.91 3.19M353.48 397.82c0-16.83 2.57 20.73 2.74 21.39.28 1.13.22 1.37 0 1.37M459.57 375.51c0-5.45 13.13 19.57 8.2 19.57" stroke="#000" stroke-width="6.25" stroke-linecap="round"/><path d="M239.97 551.445c-.01-.01-.015-.04-.015-.092l.015.092zm0 0c.087.08.543-1.364 1.368-4.335l.646-.46.092-2.03.185.462v-.277c0-1.045.43-1.814 1.29-2.306l.554-.83 1.107-2.674h.184c.676 0 1.015-.4 1.015-1.199v-.369l2.582-.922h.737c.8-.246 1.63-.369 2.49-.369h.646l.461-.184 2.029-.461 2.398.553c.123.062.368.154.737.277.615-.246 1.045-.37 1.291-.37.861 0 1.66.646 2.398 1.937l1.291.923.922 1.844 1.384 1.383.369 2.582v.277c0 1.23-.738 2.46-2.214 3.689l-.737-.461-1.476.83-1.844-3.597c-.123-.922-.37-1.69-.738-2.305l-.553.276-1.568-.83-.554-.092-1.198.738-1.937-.553-.646.276c-.553.615-1.106.923-1.66.923-.245 0-.46-.031-.645-.093v.923c-.615.983-1.383 2.182-2.306 3.596-.061.615-.276 1.752-.645 3.412l-.83.554-.369 1.014-.461.83.461 1.844-1.107 1.66-.368 1.384-.37.737.093 1.291-1.291 3.32.184 1.568c-.061.246-.43 1.107-1.106 2.582l-.093.37c.615-.247 1.138-.4 1.568-.462l.553.092c.123-.061.4-.153.83-.276h.277l3.136.184.276-.184c.738-.123 1.168-.185 1.291-.185.615 0 1.291.154 2.03.461.737-.184 1.382-.276 1.936-.276.492 0 .922.092 1.29.276h.83l1.2.277c2.213.061 3.32.953 3.32 2.674 0 .492-.093 1.076-.277 1.752l-4.15 1.2-2.398-.37c-.676.185-1.813.4-3.412.646l-.46-.461c-.431.43-1.015.645-1.753.645h-1.015l-2.582 1.2-1.29-.646h-.462a3.352 3.352 0 0 1-1.844 1.199l.092.553-.369 1.291.553 1.568-1.198 2.397.276 3.69-.46 1.29.276 1.291-.922 2.03.276 1.106c.062.061.092.215.092.461 0 .062-.123.722-.368 1.983a19.468 19.468 0 0 0-.37 3.735v.83c.062.061.4.46 1.015 1.198l-.645 1.568.645 1.845-.461 1.475 1.014 4.519.277 4.98 1.476 1.844-.83 2.03c.737 1.29 1.106 2.335 1.106 3.135v.276c0 .123.031.277.092.461v.461c0 2.337-1.352 3.566-4.057 3.69l-.738-1.476-1.107-.646-.184-1.66-1.844-5.164v-1.015c-.246-1.106-.37-1.752-.37-1.936 0-.308.031-.523.093-.646l-.277-1.567.277-1.568-.277-1.015v-2.028l-.922-5.81.184-.185-.184-1.014.184-1.291-.645-1.2.553-1.014v-4.795l.461-.553v-3.32l.277-.738-.277-2.859.37-1.106c.122-1.046.491-3.382 1.106-7.01h-.369l-1.199-.368h-1.383l-2.582.369-1.568-.369-2.674.553-.923-.184a5.728 5.728 0 0 1-1.106.092c-2.705-1.23-4.15-2.182-4.335-2.859l-.46-1.567c.799-2.398 1.905-3.597 3.32-3.597.06 0 1.106.215 3.135.645l5.348.185 2.583-.553 2.213.092.83.092.277-1.199.184-2.674.461-1.107-.277-1.844c0-.677.246-1.26.738-1.752l-.092-1.015 1.014-1.106.461-2.767.37-.461-.277-1.2c.737-.86 1.106-1.567 1.106-2.12l-.077-.461zm37.995 0c.087.08.543-1.364 1.368-4.335l.646-.46.092-2.03.184.462v-.277c0-1.045.43-1.814 1.291-2.306l.554-.83 1.106-2.674h.185c.676 0 1.014-.4 1.014-1.199v-.369l2.582-.922h.738c.8-.246 1.63-.369 2.49-.369h.646l.46-.184 2.03-.461 2.397.553c.123.062.37.154.738.277.615-.246 1.045-.37 1.291-.37.86 0 1.66.646 2.398 1.937l1.29.923.923 1.844 1.383 1.383.37 2.582v.277c0 1.23-.739 2.46-2.214 3.689l-.738-.461-1.475.83-1.845-3.597c-.123-.922-.369-1.69-.738-2.305l-.553.276-1.568-.83-.553-.092-1.199.738-1.936-.553-.646.276c-.553.615-1.107.923-1.66.923-.246 0-.461-.031-.645-.093v.923c-.615.983-1.384 2.182-2.306 3.596-.061.615-.277 1.752-.645 3.412l-.83.554-.37 1.014-.46.83.46 1.844-1.106 1.66-.369 1.384-.369.737.093 1.291-1.292 3.32.185 1.568c-.062.246-.43 1.107-1.107 2.582l-.092.37c.615-.247 1.137-.4 1.568-.462l.553.092c.123-.061.4-.153.83-.276h.277l3.135.184.277-.184c.738-.123 1.168-.185 1.29-.185.616 0 1.292.154 2.03.461.738-.184 1.383-.276 1.936-.276.492 0 .923.092 1.291.276h.83l1.2.277c2.213.061 3.32.953 3.32 2.674 0 .492-.093 1.076-.277 1.752l-4.15 1.2-2.398-.37c-.676.185-1.814.4-3.412.646l-.461-.461c-.43.43-1.015.645-1.752.645h-1.015l-2.582 1.2-1.291-.646h-.461a3.352 3.352 0 0 1-1.845 1.199l.093.553-.37 1.291.554 1.568-1.199 2.397.277 3.69-.461 1.29.276 1.291-.922 2.03.277 1.106c.061.061.092.215.092.461 0 .062-.123.722-.369 1.983a19.468 19.468 0 0 0-.369 3.735v.83c.062.061.4.46 1.015 1.198l-.646 1.568.646 1.845-.461 1.475 1.014 4.519.277 4.98 1.475 1.844-.83 2.03c.738 1.29 1.107 2.335 1.107 3.135v.276c0 .123.03.277.092.461v.461c0 2.337-1.352 3.566-4.058 3.69l-.737-1.476-1.107-.646-.184-1.66-1.845-5.164v-1.015c-.246-1.106-.369-1.752-.369-1.936 0-.308.031-.523.093-.646l-.277-1.567.277-1.568-.277-1.015v-2.028l-.922-5.81.184-.185-.184-1.014.184-1.291-.645-1.2.553-1.014v-4.795l.461-.553v-3.32l.277-.738-.277-2.859.369-1.106c.123-1.046.492-3.382 1.107-7.01h-.37l-1.198-.368h-1.384l-2.582.369-1.567-.369-2.675.553-.922-.184a5.728 5.728 0 0 1-1.107.092c-2.705-1.23-4.15-2.182-4.334-2.859l-.461-1.567c.8-2.398 1.906-3.597 3.32-3.597.061 0 1.106.215 3.135.645l5.35.185 2.581-.553 2.214.092.83.092.276-1.199.185-2.674.46-1.107-.276-1.844c0-.677.246-1.26.738-1.752l-.092-1.015 1.014-1.106.461-2.767.369-.461-.277-1.2c.738-.86 1.107-1.567 1.107-2.12l-.077-.461zm37.995 0c.087.08.543-1.364 1.368-4.335l.645-.46.092-2.03.185.462v-.277c0-1.045.43-1.814 1.291-2.306l.553-.83 1.107-2.674h.184c.677 0 1.015-.4 1.015-1.199v-.369l2.582-.922h.738c.799-.246 1.629-.369 2.49-.369h.645l.461-.184 2.03-.461 2.397.553c.123.062.369.154.738.277.614-.246 1.045-.37 1.29-.37.861 0 1.66.646 2.398 1.937l1.291.923.923 1.844 1.383 1.383.369 2.582v.277c0 1.23-.738 2.46-2.213 3.689l-.738-.461-1.476.83-1.844-3.597c-.123-.922-.369-1.69-.738-2.305l-.553.276-1.568-.83-.553-.092-1.2.738-1.936-.553-.645.276c-.554.615-1.107.923-1.66.923-.246 0-.461-.031-.646-.093v.923c-.615.983-1.383 2.182-2.305 3.596-.062.615-.277 1.752-.646 3.412l-.83.554-.369 1.014-.46.83.46 1.844-1.106 1.66-.37 1.384-.368.737.092 1.291-1.29 3.32.184 1.568c-.062.246-.43 1.107-1.107 2.582l-.092.37c.614-.247 1.137-.4 1.567-.462l.554.092c.123-.061.4-.153.83-.276h.276l3.136.184.276-.184c.738-.123 1.169-.185 1.292-.185.614 0 1.29.154 2.028.461.738-.184 1.384-.276 1.937-.276.492 0 .922.092 1.291.276h.83l1.199.277c2.213.061 3.32.953 3.32 2.674 0 .492-.092 1.076-.277 1.752l-4.15 1.2-2.397-.37c-.677.185-1.814.4-3.413.646l-.46-.461c-.431.43-1.015.645-1.753.645h-1.014l-2.582 1.2-1.291-.646h-.462a3.352 3.352 0 0 1-1.844 1.199l.092.553-.369 1.291.554 1.568-1.2 2.397.277 3.69-.46 1.29.276 1.291-.922 2.03.276 1.106c.062.061.093.215.093.461 0 .062-.123.722-.37 1.983a19.468 19.468 0 0 0-.368 3.735v.83c.061.061.4.46 1.014 1.198l-.645 1.568.645 1.845-.46 1.475 1.014 4.519.276 4.98 1.476 1.844-.83 2.03c.738 1.29 1.107 2.335 1.107 3.135v.276c0 .123.03.277.092.461v.461c0 2.337-1.353 3.566-4.058 3.69l-.738-1.476-1.106-.646-.185-1.66-1.844-5.164v-1.015c-.246-1.106-.369-1.752-.369-1.936 0-.308.03-.523.092-.646l-.276-1.567.276-1.568-.276-1.015v-2.028l-.923-5.81.185-.185-.185-1.014.185-1.291-.646-1.2.554-1.014v-4.795l.46-.553v-3.32l.277-.738-.276-2.859.369-1.106c.122-1.046.491-3.382 1.106-7.01h-.369l-1.199-.368h-1.383l-2.582.369-1.568-.369-2.674.553-.922-.184a5.728 5.728 0 0 1-1.107.092c-2.705-1.23-4.15-2.182-4.334-2.859l-.461-1.567c.799-2.398 1.905-3.597 3.32-3.597.061 0 1.106.215 3.135.645l5.349.185 2.582-.553 2.213.092.83.092.277-1.199.184-2.674.461-1.107-.276-1.844c0-.677.246-1.26.737-1.752l-.092-1.015 1.015-1.106.46-2.767.37-.461-.277-1.2c.738-.86 1.107-1.567 1.107-2.12l-.077-.461zm51.72 40.945c0 .738-.554 1.66-1.66 2.767-.308.984-.769 1.783-1.383 2.398l-.554.092-1.014 1.752-1.66.277-1.752 1.106-.923 1.66-1.014-.184c-.676.307-1.23.492-1.66.553l-.553.83c-.185-.061-.461-.092-.83-.092-.8 0-1.568.553-2.306 1.66l-1.29-1.107c-.247.062-.616.093-1.107.093-.8 0-1.476-.123-2.03-.37h-1.567l-.738-.46c-2.336-.37-3.812-1.26-4.426-2.675v-.276l-1.107-.554-.553-1.567-1.107-.738v-1.384l-1.107-4.057.185-3.32.369-1.476v-1.936l.46-1.476-.091-.645.645-1.107-.184.184c0-.553.153-1.137.46-1.752v-.46l-.276-2.214c0-1.045.461-1.967 1.383-2.767.062-.123.093-.307.093-.553 0-.246-.108-.753-.323-1.522-.215-.768-.323-1.306-.323-1.613 0-.738.185-1.507.553-2.306.492.738 1.2 1.107 2.122 1.107h.276c.123-.246.4-.523.83-.83.492-1.537 1.168-2.828 2.029-3.874l.369-.368c0-.246.184-.953.553-2.122h.738l.184-.46.738-.185c.308-.492.507-.784.6-.876.092-.092.753-.477 1.982-1.153.246-.43.615-.83 1.107-1.199.246-.123.553-.246.922-.369l.369-.553c1.66-.553 2.705-.83 3.136-.83.491 0 .952.123 1.383.369l.46-.092.646.369a14.536 14.536 0 0 0 2.214 1.383l1.567 1.199v.369c1.415 1.106 2.122 2.674 2.122 4.703l-.277.922.277 3.043-.83.554-.923 2.397-1.752 1.937-.092 1.476c-1.967 1.414-3.781 2.55-5.441 3.412-.553.86-1.414 1.29-2.582 1.29h-.277l-1.752 1.107h-1.476l-2.213.923-1.66-.83h-.184c-.123.491-.246 1.23-.37 2.213l-.737.553-.092 1.107-.553 1.568c.184 1.475.276 2.428.276 2.858l-.369.277c0 .8-.03 1.383-.092 1.752 0 .062-.03.154-.092.277v.277c0 .491.246.891.738 1.198.184.738.492 1.2.922 1.384l.645.553 2.03.553v.277l.737.184 3.136.185 1.844-.277.922-.645.553-.185.923-1.383.46-.092 2.306-.738c.246-.43.646-.8 1.2-1.107l.276-.46c1.23-.247 1.936-.892 2.12-1.937.862-.861 1.968-1.291 3.32-1.291h.37c1.168 1.352 1.752 2.459 1.752 3.32zm-9.13-26.559c0-.184-.092-.553-.277-1.107l-.46-.092-.185.092h-.37a.818.818 0 0 1-.368.093.708.708 0 0 1-.277-.093h-.276l-.922.646-.83.092-.462.185-1.567 2.029-1.015.737-1.475 2.582-.83.554c-.185 1.045-.615 1.936-1.291 2.674l-.37.646c.677-.43 1.446-.646 2.306-.646l.646-.277.277-.83 1.29.093.738-1.107h.554l1.014.369.461-1.383h.646v-1.015l1.199-.276.276-.277.185-.83 1.199-1.752c.123-.308.184-.677.184-1.107zm49.061 19.735l-1.752 1.66-.092.553c-.185 1.107-.707 1.999-1.568 2.675-1.476 2.766-3.535 4.795-6.179 6.086l-1.383 1.107-1.199.184-1.476 1.107-1.014.092-2.305 1.476-1.476-.185-1.66.738-1.291-.369-.646.554-1.752-.277-1.752.277-.645-.554-1.845-.369-2.674-2.028-1.476-1.845c-.922-1.168-1.383-2.152-1.383-2.95v-.278l-.922-1.383v-1.199c-.185-.737-.277-1.414-.277-2.029v-.645l-.461-1.568.461-1.106-.369-.738 1.107-1.752-.277-1.476.738-2.398.369-.553.369-2.213-.185-.37 1.107-1.198.184-.922.738-2.121 1.199-2.582 1.66-1.476.369-.83.553-1.014.185-.923 1.475-1.752c.369-.123.8-.246 1.291-.369.246-1.168 1.783-1.844 4.611-2.028 2.398.491 3.935 1.137 4.611 1.936.676.123 1.2.4 1.568.83l1.937.092 1.29 1.66a7.34 7.34 0 0 1 .646 1.845l.738.738-.277 1.383c.062.43.093 1.106.093 2.029l.46.369v1.383l.37 2.859c-1.292 1.29-2.767 2.028-4.427 2.213-.86-1.599-1.937-2.797-3.228-3.597l-.184-3.043-.554-1.014v-.738l-.922-1.107-.46-.369-.83.277h-1.2c-.799.184-1.567.769-2.305 1.752a69.229 69.229 0 0 0-2.213 3.136l-.093.922-.553.461v1.66l-1.199 1.291-1.475 4.058.092 1.106-.738 1.66.277 2.03-.554.276-.184 2.582.092.461 1.107 1.107.46 1.936 1.292.37.092.737 1.568.277 1.199.276c.43-.246.953-.369 1.568-.369h.645c.738-.307 1.414-.46 2.029-.46.43-.185.984-.37 1.66-.554.738-.984 1.783-1.476 3.135-1.476h.554c.307 0 .522-.153.645-.46.677-1.046 1.752-1.722 3.228-2.03 1.721-1.536 2.705-2.766 2.951-3.688.86-.492 1.414-1.26 1.66-2.306l.553-.369.277-2.12c2.828.43 4.242 1.844 4.242 4.241v.738zm56.992 9.038c0 .738-.553 1.629-1.66 2.674l-.738.277-.645.83-1.66.46c-.308.431-.615.646-.922.646-.062 0-.123-.03-.185-.092h-.276c-1.353.676-2.982 1.015-4.888 1.015h-.738l-2.305-.462-1.568-.737-3.505-2.951-.737-2.49-1.476-1.2c.185-.245.277-.645.277-1.198 0-.369-.246-.984-.738-1.844l.277-2.214v-.369c0-.737-.215-1.69-.646-2.858l.554-2.767-1.2 2.398-1.383.184-.184 1.937c-.492.246-1.076.369-1.752.369l-1.015 2.213-1.199 1.383c-.491.554-.922.861-1.29.923l-.277.184-3.32 3.412h-.37l-1.751 2.029-1.66.83-.922 1.199-2.121.645-3.044 1.2-1.844-.923c-1.23 0-2.09-.553-2.582-1.66l-.83-.461c0-.185.03-.43.092-.738v-.645l-1.476-1.291.37-.554-1.107-2.582.369-.369-.185-.184v-.554a1.517 1.517 0 0 1-.092-.46c0-.677.092-1.323.277-1.937l.092-2.398-.37-1.937c.308-.492.462-.922.462-1.29 0-.431-.184-.83-.553-1.2l1.014-.737v-1.107l-.369-3.043 1.015-5.902c0-.984-.277-2.429-.83-4.335.184-1.967 1.475-3.043 3.873-3.227l.738.276 1.29.185 1.66 1.844-.553 2.398-.184 3.965.277 3.044-.554 1.106.277.738-.461 1.475v.923l-.185.276c.062.185.093.461.093.83 0 .8-.123 1.63-.37 2.49l.462.646-.369 1.383.184 1.107v1.29c.308.37.462.83.462 1.384 0 .492-.123.984-.37 1.476v.369c.308 1.045.462 1.721.462 2.028l.83.83c.369-.246.799-.553 1.29-.922.185-.615.616-1.014 1.292-1.199v-.922c.369 0 .953-.092 1.752-.277l.184-.83 1.568-.645.277-.277c.43-.43 1.137-.83 2.12-1.199v-.369l1.753-1.29c.43-1.169 1.199-1.937 2.306-2.306.676-.676 1.137-1.076 1.383-1.199l1.199-1.568v-.276l.369-.185.83-.369.46-1.29 1.937-.83.37-.093.645-.645v-.83l.553-.185c.185-.984.676-1.721 1.476-2.213l1.383-3.136.461-1.66.184-.368h.37l.645-.462-.553-.184a14.913 14.913 0 0 0 1.567-3.504l2.675-.093 2.12 1.753.923 1.475-1.014 3.966-1.384 1.844-1.106 3.597-.923.553v1.383l-.553 1.015.277 1.66-.738.645.369 2.951.184 4.15h.461v2.398l1.291 1.567 1.2.646.092.461c.43.062.952.215 1.567.461l2.306.185 1.383-.37 2.49-1.198c.492-.246 1.107-.369 1.844-.369 1.845 0 2.767.8 2.767 2.398zm40.577-28.957l-.738 3.043-3.412.461-1.844 1.199-1.2-.553-1.29.737-1.384.554-.922.645v.37l-1.937.921-1.29 1.66h-.646c-.984 1.045-1.69 1.69-2.121 1.937l-1.291 2.12-.461.185c-.185.492-.4 1.23-.646 2.214l-1.291.46-.553 1.107-.738.923-.185 1.383-.737.277v1.383l-.277.276c.184.308.4.646.646 1.015l-1.384.553-.184 1.2-.922 1.567.553 1.199-1.199 1.66c.123.614.185 1.045.185 1.29v.37a1.517 1.517 0 0 0-.093.46l.185.83 1.567 1.66-1.198 2.122-1.107.83-2.582 1.29-3.412-1.383v-2.12l-.37-.83.277-1.384c-.122-.984-.184-1.721-.184-2.213 0-.185.03-.43.092-.738v-.645l-.092-.923c-.43-.43-.646-.922-.646-1.475 0-.492.216-1.045.646-1.66 0-.308-.061-1.23-.184-2.767l.276-.276-.276-1.2.184-1.106-.184-.645.276-2.121-.553-.923.369-1.014-.37-1.199c.062-.369.093-.86.093-1.476 0-.922-.123-1.536-.369-1.844l.37-.553-.37-1.66-.83-1.199.461-1.476-.368-.553-.37-2.213v-.738c-.307-.369-.46-.83-.46-1.383 0-1.23 1.352-2.275 4.057-3.136l2.306.461.46 1.753.923 1.198-.277 2.49c.185 1.23.4 2.583.646 4.058l.277 1.476c.061.123.123.46.184 1.014 0 .369-.154.768-.461 1.199l.277 1.844-.185 2.03-.369.921.277.37.184.921c.37-.43.584-.891.646-1.383l.369-1.383a1.81 1.81 0 0 1 .83-.83l.369-1.383 1.29-.738.185-1.107 1.015-1.107.737-1.383c.8-.86 1.568-1.414 2.306-1.66l.184-.276.83-1.292.922-.184.277-.277.369-.553 1.014-.553.554-.646.553.092.738-.368.369-.554 1.106-.553 1.568-1.015 2.213-.737c.861-.123 1.322-.185 1.384-.185v.092c-.062 0-.093.031-.093.093h.093c.246 0 .614-.123 1.106-.37.308-.245.738-.368 1.291-.368.246 0 .677.061 1.291.184 1.599.062 2.49.8 2.675 2.214zm16.784-28.035c0 .738-.492 1.414-1.476 2.029v.184c-1.168 1.414-2.182 2.213-3.043 2.398l-1.383 1.66-.922 1.199-2.121.553-.923 1.291-1.475.738-2.398 2.12-1.475-1.382.276-2.306 1.015-1.66c.061-.86.553-1.598 1.475-2.213v-.37l.553-.368.093-1.383 1.475-.37v-.83l1.107-.184c.246-1.23.768-2.12 1.568-2.674l.276-.184.554-.554.737-2.213c4.058.984 6.087 2.49 6.087 4.519zm9.406 48.876c0 1.414-.246 2.306-.737 2.675l-.462.369-.46 1.29-1.476.462c-.43.984-1.076 1.752-1.937 2.305l-.83.277-1.199 1.291-1.106.277c-.43 1.106-1.322 1.69-2.675 1.752-.123.184-.4.553-.83 1.107-.922.614-1.875.983-2.858 1.106l-.462.092-.645.83h-1.845l-1.475 1.107-3.781-2.767-1.752-3.596-.092-4.519-.37-1.107 1.107-8.115.37-.369a13.63 13.63 0 0 1-.277-2.674c0-.554.184-1.69.553-3.412l.461-2.121c-.123-.37-.369-.769-.738-1.2l.554-1.751.184-2.121.184-.277a5.806 5.806 0 0 1-.46-1.845c.06-.123.122-.292.184-.507.061-.215.092-.384.092-.507a4.964 4.964 0 0 1-.277-1.568c0-1.475.83-2.152 2.49-2.029l1.107.093c.738-.37 1.199-.554 1.383-.554 1.23 0 2.06.677 2.49 2.03v.368c.246.738.369 1.445.369 2.121 0 .553-.061.953-.184 1.199l-.646 4.611.646 1.291c0 1.107-.37 2.09-1.107 2.951l.369 1.107-1.2 3.504c-.122 1.537-.276 2.705-.46 3.504v2.306l-.553 1.291.092.922-.185 2.121.185 1.66 1.383 1.107 1.107-.185.184-.276.738.092 1.199-.369 1.014-1.014.369-.554.646-.092.184-.46.277-.37.553.37.922-.923.554.092.184-.645h.184l.277-.738.83-.37 1.752-.83c1.414-.983 2.798-1.475 4.15-1.475h.369c.676.43 1.137.984 1.383 1.66zm33.568-19.642c0 .553-.553 1.075-1.66 1.567-.246.308-.707.584-1.383.83-.86.37-1.475.677-1.844.922l-1.937-.645c-.984.738-2.244 1.107-3.78 1.107l-1.108-.277-.83.738h-2.49l-1.567 1.014c-.677-.246-1.322-.369-1.937-.369-.184.123-.615.246-1.29.37-.308 0-.646-.093-1.015-.278l-.277 3.505.092 2.582-.276 3.228.184 3.504.277 1.66v1.291l1.29 2.767a.885.885 0 0 0-.276.645c0 .43.676.769 2.029 1.015l.184 1.106.646.277 1.107.738.737.553c.615-.123 1.045-.184 1.291-.184.554 0 1.107.092 1.66.276.246-.123.769-.553 1.568-1.29.553-.493 1.076-.739 1.568-.739h.276a.708.708 0 0 0 .277.093c.553-1.169 1.537-1.937 2.951-2.306 1.291 0 2.367.4 3.228 1.199v.645c0 2.09-.738 3.413-2.213 3.966-.554 1.291-1.722 2.121-3.505 2.49l-1.106 1.014h-1.2l-2.12.554c-.492.123-1.2.184-2.121.184-.492 0-1.015-.123-1.568-.369H547.6l-3.228-1.752-.83-.277-1.936-2.582-1.107-1.199-2.029-4.61-.738-4.335.185-1.107-.738-1.014.461-1.291-.46-2.029.645-.646.184-1.198-.277-1.107.185-1.66-.369-1.476.461-.46v-1.476l-.645-.277-1.753.37-1.66-1.2h-.276c-1.845 0-2.767-.983-2.767-2.95v-.277l-1.106-1.753 1.752-1.66 2.305.37 1.2-.185 1.751.46h1.937v-1.844l-1.199-2.582 1.199-.645-.461-1.384.092-2.858-.738-1.2c-.43-.675-.645-1.29-.645-1.844 0-.676.153-1.23.46-1.66l.277-1.29.738-.738c1.66-.308 2.767-.461 3.32-.461 1.968 0 3.043.891 3.228 2.674l-.277.461c.37.553.554 1.076.554 1.568 0 .061-.031.215-.093.46l-.184.554-.092.646.369 1.199-.093.46.185 1.292-.83 1.106.46 1.845-.368 2.213.738.83-.738 1.66 2.859-.369 5.072.461 4.058-.645 1.383.092.461-.092h3.597c1.905 0 2.858.676 2.858 2.029zm52.197 15.677a17.947 17.947 0 0 1-.83 2.305l.092.554.646 3.32-.646 3.504.277 1.66-.554 1.199.37 4.058-.37.645v2.674l-.092 2.121.277.923-.185 5.81.738 1.66-.553.737.277 1.568-.462.461.462 1.568-.83.922v.646l-.37.83c-.184 1.045-.86 2.551-2.028 4.518l-.646 2.306c-.492.246-.799.43-.922.553l-.277.277-.83 1.106-.922 1.384-1.567.83c-.738 1.352-1.599 2.12-2.583 2.305-.307.308-.522.492-.645.554l-.277.276-1.29.554-.739.737h-.922l-.46.738-1.66-.369-1.753 1.107-1.66-.369-3.043.461-.646-.092-.46.184-3.044-.553h-1.384l-.553-.553-3.689-1.2-3.135-.46-.461-.83-1.66-.185-.553-1.567-1.107-.277-.738-1.383-1.752-.646-1.476-2.121-2.674-1.66.184-1.752c-.122-.062-.4-1.26-.83-3.597 0-.983.216-2.182.646-3.596v-.83l.922-.461.554-1.568.368.184.923-1.475 1.66-1.291 1.29-.37 2.49-2.028 2.398.184c.615-.614 1.414-.922 2.398-.922 1.414.676 2.121 1.506 2.121 2.49 0 .615-.277 1.23-.83 1.845l-1.29.645-1.384 1.014-1.384.37-.83 1.567h-1.383l-.553.922-1.199 1.015.092 1.383-.738 1.291.37.922.645 1.476 2.029 1.29.46 1.384 2.49 1.937 1.384.092 1.66 1.291h1.66l1.014 1.015 1.291-.093.738.554 4.427-.185 2.859-.922 1.752.092 1.936-1.106c.492-.185.923-.277 1.291-.277.123-.062.339-.184.646-.369l.461-.738.922.277.37-.369v-.738c.06-.369.46-.676 1.198-.922.246-.615.738-1.137 1.476-1.568.184-.307.338-.983.46-2.028l1.292-.738.276-.646c.246-.492.492-1.014.738-1.568l.092-.276.277-3.597.369-.276v-1.476l-.369-1.383.553-1.107c-.123-1.23-.184-2.06-.184-2.49 0-.553.03-1.183.092-1.89.062-.707.092-1.122.092-1.245v-4.703l-.645-1.2.645-1.936-.184-1.844v-4.704l-.277-1.198.37-.646v-1.199c0-.43.03-.707.091-.83l-.737-2.12v-3.229l-1.015 1.66-1.106.83-1.107 1.107-.738.277-.276 1.106-.83.461-.093.277-1.29 1.107-1.753 2.12-2.49 2.583-.922.277-.277.46-2.766 2.03h-.83l-.923.922-.368.922-2.03.645-.368.646-1.383.184-1.937 1.292-1.568.368-.738.554-1.014.184-.277.185c-.799.86-2.06 1.29-3.78 1.29-1.845 0-3.29-.583-4.335-1.752l-2.029-3.043-.092-1.752-1.107-3.32v-2.766l-.369-1.107.554-.922-.461-2.03.645-.552.092-.923.554-1.106-.185-1.937.37-.738v-.645c0-1.291.214-2.798.645-4.519l-.277-2.49.277-2.305-.83-3.32.184-.646-.369-.553 1.107-2.951c.246-.984.369-1.968.369-2.951.738-.37 1.475-.554 2.213-.554.553 0 1.107.093 1.66.277l.83 1.844 1.568 1.107c-.185.922-.338 1.66-.461 2.213l.83 1.384-.37.922 1.2 1.014-1.107 2.03.553 2.397-.645 1.014.092.185-.553 3.965v3.597l-.554.553-.369 3.228-.83 1.014c0 .308.031.707.093 1.199v.922l.645 1.66-.645 1.199.184 1.476-.184.368.184 1.107.83.738.646-.185.092.554.645-.922h2.675c.369-.37.83-.677 1.383-.923 1.414-.983 2.674-1.537 3.781-1.66l.092-1.198a448.621 448.621 0 0 0 6.548-3.597l.369-.738a4.511 4.511 0 0 1-.461.277c.184-.123.615-.4 1.29-.83l.37-1.199.645-1.014 1.291-.462.738-1.106.461.092.554-.369 1.106-1.199.461-.092.092-.277 1.66-1.752 1.015-1.66c.676-.184 1.26-.615 1.752-1.29l1.291-2.675-.184-2.859.922-.369v-.277l-.553-1.66.092-.368c-.43-.677-.646-1.2-.646-1.568 0-.676.37-1.506 1.107-2.49v.277l.369-.923.092-.368v.276c.492-1.23 1.721-1.875 3.689-1.936l2.95 2.858.277 2.398.923 1.568-.554 1.475.093.646v.461a8.203 8.203 0 0 0-.462.83l.277.553v1.476l-.369 1.475.37 2.03v1.475l.276.645-.185 1.752.646 2.306z" fill="#000"/></g></svg>
