<?xml version="1.0" encoding="UTF-8"?>
<svg width="1122px" height="1122px" viewBox="0 0 1122 1122" version="1.1" xmlns="http://www.w3.org/2000/svg" xmlns:xlink="http://www.w3.org/1999/xlink">
    <!-- Generator: Sketch 49.3 (51167) - http://www.bohemiancoding.com/sketch -->
    <title>kitchen-duty-logo-single</title>
    <desc>Created with Sketch.</desc>
    <defs></defs>
    <g id="Page-1" stroke="none" stroke-width="1" fill="none" fill-rule="evenodd">
        <g id="kitchen-duty-logo-single" transform="translate(89.000000, 71.000000)">
            <path d="M923.221785,640 C895.698357,710.524312 825.171725,777.771484 723.003964,777.771484 C589.417309,777.771484 598.497834,723.84375 523.767026,723.84375 C449.036218,723.84375 424.589417,780.523437 306.630362,777.771484 C214.246872,775.616202 141.871478,717.314335 116,640 L131.90028,640 C157.419832,710.064646 224.503559,760.851353 306.984778,762.775618 C333.736407,763.399726 356.575535,760.898113 377.516033,755.614304 C394.049684,751.442453 408.110046,746.063518 427.183121,737.254109 C426.516632,737.561945 446.005999,728.425989 451.493314,725.983007 C477.812434,714.265594 498.320271,708.84375 523.767026,708.84375 C550.753181,708.84375 568.642347,714.496651 591.340877,727.551714 C593.519051,728.804492 605.316873,735.805501 608.79965,737.780909 C622.615314,745.617063 634.579969,750.792916 649.911676,754.85076 C669.438513,760.018928 693.112136,762.771484 723.003964,762.771484 C781.010571,762.771484 831.420662,739.454051 868.513074,699.280941 C884.9321,681.498238 897.966769,661.06545 906.93787,640 L923.221785,640 Z" id="Combined-Shape" fill="#fff" fill-rule="nonzero"></path>
            <polygon id="Rectangle-3" fill="#fff" points="111 449 126 449 132.081055 640.175293 116.224121 640"></polygon>
            <polygon id="Rectangle-3" fill="#fff" points="908 446 923 446 923 640.212891 906.901855 640.212891"></polygon>
            <circle id="Oval" stroke="#fff" stroke-width="10" cx="318" cy="422" r="27"></circle>
            <circle id="Oval" stroke="#fff" stroke-width="10" cx="233.5" cy="509.5" r="22.5"></circle>
            <circle id="Oval" stroke="#fff" stroke-width="10" cx="402" cy="524" r="37"></circle>
            <circle id="Oval" stroke="#fff" stroke-width="10" cx="517" cy="428" r="21"></circle>
            <circle id="Oval" stroke="#fff" stroke-width="10" cx="710" cy="422" r="21"></circle>
            <circle id="Oval" stroke="#fff" stroke-width="10" cx="664.5" cy="543.5" r="32.5"></circle>
            <circle id="Oval" stroke="#fff" stroke-width="10" cx="780" cy="503" r="21"></circle>
            <circle id="Oval" stroke="#fff" stroke-width="10" cx="350.5" cy="64.5" r="50.5"></circle>
            <circle id="Oval" stroke="#fff" stroke-width="10" cx="242" cy="172" r="31"></circle>
            <circle id="Oval" stroke="#fff" stroke-width="10" cx="813" cy="34" r="34"></circle>
            <circle id="Oval" stroke="#fff" stroke-width="10" cx="603" cy="956" r="34"></circle>
            <path d="M114.903234,585.370823 L114.903234,599.082464 C97.1836436,599.758035 83.4951473,604.921247 73.6314015,614.477278 C53.7314207,633.75645 51.6607711,655.771396 67.4990608,681.985141 L69.6995042,685.627065 L66.3613469,688.283673 C14.8282397,729.2953 3.95176858,766.200713 31.9298303,800.85044 C60.3827057,836.088206 93.0065266,842.516929 131.502898,820.533067 L140.388467,815.458845 L138.791804,825.508538 C135.508044,846.177125 141.603472,862.614144 157.271707,875.469425 C172.743073,888.163181 194.673016,889.317195 223.650422,878.41841 L230.932706,875.679447 L230.273749,883.380352 C225.870453,934.839503 241.494571,960.452258 277.403564,962.84456 C353.324989,967.902539 392.183,936.530906 396.043714,867.429653 L396.674122,856.146256 L404.500874,864.35447 C428.139754,889.145467 449.39442,892.52882 470.189962,875.469206 C491.642444,857.870672 498.368541,835.652506 490.574929,807.906655 L488.27744,799.727417 L496.549922,801.895251 C522.715473,808.752028 541.762532,803.867153 554.686231,787.388074 C565.53279,773.557568 567.73565,758.345651 561.330721,741.117566 C559.203708,736.113583 557.057695,731.195122 554.892693,726.362142 L571.188814,727.758712 C572.605546,731.007768 574.013862,734.292168 575.413765,737.611904 C583.261121,758.767839 580.507856,778.074477 567.271941,795.080744 C552.85841,813.600077 532.02481,820.310849 505.536635,815.327347 C511.159986,844.068023 502.45639,868.249052 479.58798,887.152621 C456.368588,906.34632 431.589229,904.525181 406.709981,882.426456 C399.004006,951.85362 354.812708,984.497319 275.956116,979.203615 C234.834313,976.443077 215.467607,947.388493 218.084625,894.38956 C188.854444,903.894189 165.251921,901.620666 147.751591,887.152396 C131.496861,873.713916 123.688212,856.554602 124.454732,836.111009 C84.2975183,855.606453 48.5073303,846.466659 18.5044299,809.025065 C-13.404412,769.204985 -1.7157908,726.269616 51.8404307,682.008891 C35.789088,652.724668 39.1007815,626.316893 61.8471188,604.111622 C74.6522813,591.611056 92.42472,585.404439 114.903234,585.370823 Z" id="Combined-Shape" fill="#fff" fill-rule="nonzero"></path>
            <path d="M512.751411,62.2654162 L512.751411,77.1076618 C498.238282,77.7102142 486.987705,81.4211685 478.835802,88.1761134 C462.058811,102.078101 460.313118,117.952824 473.665836,136.855252 L475.520955,139.481402 L472.706669,141.397051 C429.260874,170.970061 420.091294,197.582127 443.678638,222.567645 C467.666281,247.97719 495.170306,252.612868 527.625275,236.76056 L535.116394,233.101597 L533.770302,240.348314 C531.001877,255.252194 536.140723,267.104738 549.350074,276.374532 C562.393452,285.527853 580.881835,286.359999 605.311692,278.501011 L611.451135,276.525976 L610.895591,282.07901 C607.183324,319.185609 620.355482,337.65467 650.629122,339.379731 C714.63587,343.026982 747.395726,320.40526 750.650562,270.577145 L751.182037,262.440818 L757.780503,268.359667 C777.709632,286.236168 795.628712,288.675864 813.16072,276.374374 C831.246572,263.684275 836.917113,247.663013 830.346587,227.6558 L828.409652,221.757846 L835.383898,223.321046 C857.443176,228.265388 873.501099,224.742962 884.396626,212.860088 C893.540987,202.88707 895.398143,191.917934 889.998368,179.49496 C887.979536,175.432653 885.940402,171.448508 883.880979,167.542485 L898.001596,167.542485 C899.35982,170.281656 900.708916,173.054692 902.048886,175.861582 C908.677663,191.647396 906.35194,206.05333 895.171368,218.742807 C882.996047,232.561283 865.397599,237.568624 843.022649,233.85011 C847.772776,255.295391 840.420721,273.338424 821.10344,287.443602 C801.489679,301.765265 780.55819,300.406395 759.542324,283.917104 C753.032974,335.72121 715.703936,360.078789 649.092616,356.128814 C614.356426,354.068998 597.997085,332.38949 600.207718,292.843551 C575.516556,299.935571 555.579158,298.239148 540.796373,287.443434 C527.065764,277.416113 520.469684,264.612437 521.117175,249.358147 C487.195787,263.904962 456.96329,257.085169 431.6194,229.147569 C404.665533,199.435227 414.539083,167.398366 459.778809,134.37257 C446.220004,112.521714 449.01744,92.8171617 468.231605,76.2483703 C478.991765,66.9696504 493.9041,62.3382787 512.751411,62.2654162 Z" id="Combined-Shape" fill="#fff" fill-rule="nonzero" transform="translate(661.242848, 209.403951) scale(-1, -1) rotate(-15.000000) translate(-661.242848, -209.403951) "></path>
            <path d="M313.586019,297.088433 C265.331269,301.047786 219.59453,315.318088 186.007862,338.378335 C148.141088,364.377257 127.049445,400.152355 126.045208,445.852972 C123.788237,548.562713 203.25289,633.596555 308.068257,636.0941 C334.221323,636.717277 356.543693,634.220041 377.009357,628.945743 C393.170353,624.780821 406.917882,619.409228 425.57418,610.608265 C424.919023,610.91733 444.004089,601.779805 449.380058,599.335272 C475.192773,587.59785 495.323194,582.162109 520.306641,582.162109 C546.810083,582.162109 564.387841,587.835249 586.659238,600.91825 C588.794262,602.172438 600.344414,609.172875 603.751476,611.146615 C617.256406,618.970135 628.945193,624.134655 643.922529,628.183378 C663.00447,633.34167 686.146104,636.089844 715.376953,636.089844 C772.057492,636.089844 821.329014,612.812259 857.608615,572.680189 C890.042987,536.801666 909,490.113008 909,449.185547 C909,409.46921 892.429278,367.818942 863.895087,336.199834 C833.627219,302.659616 792.915426,283.318359 747.896484,283.318359 C724.725289,283.318359 702.472738,285.9124 679.880247,290.863414 C661.661478,294.855952 644.429324,300.009798 622.062634,307.750335 C616.62602,309.631807 598.538827,316.029229 595.721483,317.01209 C585.55885,320.557431 577.813272,323.115353 570.383517,325.319695 C551.334637,330.971326 535.568128,333.832031 520.306641,333.832031 C514.646135,333.832031 508.915329,333.470724 503.040455,332.766048 C492.092901,331.452917 480.86033,329.001198 467.658002,325.254455 C462.436999,323.772765 457.011128,322.123385 450.190367,319.968368 C447.137486,319.003812 435.350962,315.232405 432.53155,314.340157 C410.170654,307.263701 394.836832,303.145611 377.980471,300.174133 C356.696883,296.422213 335.739146,295.270745 313.586019,297.088433 Z M312.359375,282.138672 C405.908203,274.462891 461.271484,318.832031 520.306641,318.832031 C579.341797,318.832031 643.675781,268.318359 747.896484,268.318359 C852.117188,268.318359 924,362.248047 924,449.185547 C924,536.123047 846.169922,651.089844 715.376953,651.089844 C584.583984,651.089844 593.474609,597.162109 520.306641,597.162109 C447.138672,597.162109 423.203125,653.841797 307.710937,651.089844 C192.21875,648.337891 108.664063,554.048828 111.048828,445.523438 C113.433594,336.998047 218.810547,289.814453 312.359375,282.138672 Z" id="Rectangle" fill="#fff" fill-rule="nonzero"></path>
        </g>
    </g>
</svg>
