<?xml version="1.0" encoding="utf-8"?>
<!-- Generator: Adobe Illustrator 15.0.0, SVG Export Plug-In  -->
<!DOCTYPE svg PUBLIC "-//W3C//DTD SVG 1.1 Tiny//EN" "http://www.w3.org/Graphics/SVG/1.1/DTD/svg11-tiny.dtd" [
	<!ENTITY ns_flows "http://ns.adobe.com/Flows/1.0/">
]>
<svg version="1.1" baseProfile="tiny"
	 xmlns="http://www.w3.org/2000/svg" xmlns:xlink="http://www.w3.org/1999/xlink" xmlns:a="http://ns.adobe.com/AdobeSVGViewerExtensions/3.0/"
	 x="0px" y="0px" width="65px" height="68px" viewBox="-0.16 -0.203 65 68" xml:space="preserve">
<defs>
</defs>
<path id="Shape_11_" fill="#FFFFFF" d="M55.494,3.675c-0.991-0.992-1.387-2.403-1.525-3.612c-0.14,1.209-0.533,2.621-1.523,3.612
	C51.454,4.667,50.042,5.06,48.833,5.2l0,0c1.209,0.14,2.621,0.533,3.612,1.525c0.989,0.992,1.386,2.402,1.523,3.611
	c0.141-1.209,0.534-2.62,1.525-3.611c0.99-0.991,2.398-1.385,3.606-1.525h0.005C57.896,5.061,56.486,4.667,55.494,3.675
	L55.494,3.675z"/>
<path id="Shape_10_" fill="#FFFFFF" d="M63.622,47.673v-9.187c0-1.967-1.709-3.392-4.201-4.32c0.205-1.419,0.31-2.86,0.31-4.301
	C59.73,13.397,46.334,0,29.866,0C13.398,0,0,13.397,0,29.865C0,46.333,13.397,59.73,29.865,59.73c2.689,0,5.338-0.354,7.899-1.058
	v2.536c0,3.895,6.701,5.667,12.93,5.667c6.228,0,12.93-1.772,12.93-5.667v-4.283c0.71-1.414,1.094-2.99,1.094-4.625
	C64.716,50.663,64.332,49.088,63.622,47.673L63.622,47.673z M29.864,55.596c-14.188,0-25.73-11.543-25.73-25.731
	s11.543-25.73,25.73-25.73s25.729,11.542,25.729,25.73c0,1.104-0.071,2.208-0.211,3.298c-1.517-0.231-3.119-0.345-4.69-0.345
	c-1.435,0-2.894,0.096-4.289,0.289c0.18-0.98,0.271-1.979,0.271-2.983c0-9.126-7.424-16.55-16.55-16.55s-16.55,7.424-16.55,16.55
	h3.136c0-7.397,6.017-13.415,13.414-13.415c7.396,0,13.415,6.018,13.415,13.415c0,1.256-0.177,2.497-0.519,3.692
	c-3.054,0.902-5.257,2.438-5.257,4.67v2.662c-2.246,1.563-4.869,2.39-7.642,2.39c-2.544,0-5.021-0.716-7.159-2.067l-1.675,2.65
	c2.641,1.67,5.695,2.553,8.834,2.553c2.668,0,5.294-0.654,7.642-1.875v9.561C35.222,55.18,32.569,55.596,29.864,55.596
	L29.864,55.596z M60.486,44.005c-1.058-0.601-2.422-0.36-3.199,0.621c-0.86,1.085-0.68,2.663,0.404,3.524
	c1.274,1.012,2.008,2.522,2.008,4.148c0,1.624-0.731,3.137-2.006,4.146c-1.086,0.861-1.267,2.439-0.403,3.524
	c0.495,0.624,1.227,0.948,1.967,0.948c0.422,0,0.847-0.107,1.229-0.325v0.606c-0.032,0.152-0.554,0.847-2.537,1.516
	c-1.952,0.66-4.529,1.023-7.258,1.023c-2.727,0-5.304-0.363-7.257-1.023c-1.983-0.669-2.504-1.363-2.536-1.516V42.354
	c2.528,1.221,6.237,1.801,9.793,1.801c3.558,0,7.267-0.58,9.795-1.801V44.005L60.486,44.005z M57.949,39.997
	c-1.952,0.659-4.529,1.022-7.258,1.022c-2.727,0-5.304-0.363-7.257-1.022c-1.983-0.67-2.504-1.363-2.536-1.501v-0.004
	c0.032-0.152,0.553-0.846,2.536-1.518c1.953-0.658,4.53-1.021,7.257-1.021c2.729,0,5.306,0.362,7.258,1.021
	c1.99,0.674,2.509,1.369,2.537,1.504C60.458,38.629,59.941,39.324,57.949,39.997L57.949,39.997z"/>
<path id="Shape_9_" fill="#FFFFFF" d="M46.308,51.096c-0.78-0.781-1.092-1.894-1.202-2.847c-0.108,0.953-0.42,2.065-1.201,2.847
	c-0.78,0.782-1.895,1.092-2.848,1.202l0,0c0.953,0.11,2.065,0.42,2.848,1.203c0.781,0.78,1.093,1.894,1.201,2.846
	c0.11-0.952,0.422-2.063,1.202-2.846c0.781-0.783,1.894-1.093,2.845-1.203h0.002C48.201,52.189,47.089,51.878,46.308,51.096
	L46.308,51.096z"/>
<path id="Shape_8_" fill="#FFFFFF" d="M40.533,10.693c-0.78-0.782-1.092-1.894-1.2-2.847c-0.11,0.953-0.421,2.065-1.203,2.847
	c-0.781,0.782-1.896,1.092-2.847,1.202l0,0c0.951,0.11,2.063,0.42,2.847,1.202c0.782,0.781,1.093,1.893,1.203,2.846
	c0.108-0.953,0.42-2.065,1.2-2.846c0.781-0.781,1.894-1.091,2.845-1.202h0.003C42.428,11.785,41.316,11.475,40.533,10.693
	L40.533,10.693z"/>
<path id="Shape_7_" fill="#FFFFFF" d="M51.172,57.186c-0.313-0.312-0.436-0.755-0.479-1.134c-0.045,0.379-0.166,0.822-0.479,1.134
	c-0.312,0.312-0.754,0.436-1.134,0.479l0,0c0.38,0.044,0.82,0.167,1.134,0.479c0.312,0.313,0.435,0.754,0.479,1.133
	c0.045-0.379,0.168-0.82,0.479-1.133c0.311-0.311,0.752-0.435,1.131-0.479h0.001C51.926,57.62,51.484,57.496,51.172,57.186
	L51.172,57.186z"/>
<path id="Shape_6_" fill="#FFFFFF" d="M58.816,13.854c-0.313-0.312-0.437-0.754-0.479-1.133c-0.045,0.379-0.168,0.822-0.479,1.133
	s-0.754,0.435-1.134,0.479h0.001c0.379,0.044,0.821,0.167,1.133,0.479c0.313,0.311,0.436,0.753,0.479,1.133
	c0.043-0.379,0.167-0.822,0.479-1.133c0.312-0.311,0.752-0.435,1.131-0.479h0.002C59.568,14.288,59.126,14.165,58.816,13.854
	L58.816,13.854z"/>
</svg>
