<?xml version="1.0" encoding="UTF-8" standalone="no"?>
<svg width="378px" height="71px" viewBox="0 0 378 71" version="1.1" xmlns="http://www.w3.org/2000/svg" xmlns:xlink="http://www.w3.org/1999/xlink">
    <defs></defs>
    <g id="Page-1" stroke="none" stroke-width="1" fill="none" fill-rule="evenodd">
        <g id="Group" transform="translate(0.000000, 2.000000)" fill="#FFFFFF">
            <g id="Dishes">
                <path d="M56.154,3.878 C55.163,2.886 54.768,1.475 54.629,0.266 C54.489,1.475 54.096,2.887 53.105,3.878 C52.114,4.87 50.702,5.263 49.493,5.403 L49.493,5.403 C50.702,5.543 52.114,5.936 53.105,6.928 C54.095,7.92 54.491,9.33 54.629,10.539 C54.769,9.33 55.163,7.919 56.154,6.928 C57.145,5.937 58.553,5.543 59.761,5.403 L59.765,5.403 C58.557,5.264 57.146,4.87 56.154,3.878 L56.154,3.878 Z" id="Shape"></path>
                <path d="M64.282,47.876 L64.282,38.689 C64.282,36.722 62.573,35.298 60.081,34.369 C60.286,32.95 60.39,31.509 60.39,30.068 C60.39,13.6 46.994,0.203 30.526,0.203 C14.058,0.203 0.66,13.6 0.66,30.068 C0.66,46.536 14.057,59.934 30.525,59.934 C33.214,59.934 35.863,59.579 38.424,58.876 L38.424,61.412 C38.424,65.307 45.125,67.079 51.354,67.079 C57.581,67.079 64.283,65.307 64.283,61.412 L64.283,57.129 C64.993,55.715 65.377,54.139 65.377,52.504 C65.376,50.866 64.992,49.291 64.282,47.876 L64.282,47.876 Z M30.524,55.799 C16.336,55.799 4.794,44.256 4.794,30.068 C4.794,15.88 16.337,4.338 30.524,4.338 C44.711,4.338 56.253,15.88 56.253,30.068 C56.253,31.172 56.182,32.276 56.042,33.366 C54.525,33.135 52.923,33.021 51.352,33.021 C49.917,33.021 48.458,33.117 47.063,33.31 C47.242,32.33 47.333,31.331 47.333,30.327 C47.333,21.201 39.909,13.777 30.783,13.777 C21.657,13.777 14.233,21.201 14.233,30.327 L17.369,30.327 C17.369,22.93 23.386,16.912 30.783,16.912 C38.179,16.912 44.198,22.93 44.198,30.327 C44.198,31.583 44.022,32.824 43.679,34.019 C40.626,34.922 38.423,36.457 38.423,38.689 L38.423,41.351 C36.177,42.915 33.554,43.741 30.781,43.741 C28.237,43.741 25.76,43.025 23.622,41.674 L21.947,44.324 C24.588,45.994 27.642,46.877 30.781,46.877 C33.449,46.877 36.075,46.223 38.423,45.002 L38.423,54.563 C35.882,55.383 33.229,55.799 30.524,55.799 L30.524,55.799 Z M61.147,44.208 C60.089,43.607 58.725,43.848 57.947,44.829 C57.087,45.914 57.267,47.492 58.352,48.353 C59.626,49.365 60.359,50.876 60.359,52.502 C60.359,54.126 59.628,55.638 58.354,56.649 C57.268,57.51 57.087,59.088 57.95,60.173 C58.446,60.797 59.177,61.121 59.917,61.121 C60.339,61.121 60.763,61.014 61.147,60.796 L61.147,61.403 C61.114,61.554 60.593,62.249 58.61,62.918 C56.657,63.578 54.08,63.941 51.352,63.941 C48.625,63.941 46.048,63.578 44.095,62.918 C42.112,62.249 41.591,61.555 41.558,61.403 L41.558,42.557 C44.087,43.778 47.796,44.358 51.352,44.358 C54.909,44.358 58.618,43.778 61.147,42.557 L61.147,44.208 L61.147,44.208 Z M58.61,40.2 C56.657,40.859 54.08,41.222 51.352,41.222 C48.625,41.222 46.048,40.859 44.095,40.2 C42.112,39.53 41.591,38.837 41.558,38.699 L41.558,38.696 C41.591,38.543 42.112,37.849 44.095,37.178 C46.048,36.519 48.625,36.157 51.352,36.157 C54.08,36.157 56.657,36.519 58.61,37.178 C60.599,37.851 61.118,38.547 61.147,38.681 C61.118,38.832 60.601,39.527 58.61,40.2 L58.61,40.2 Z" id="Shape"></path>
                <path d="M46.968,51.299 C46.187,50.518 45.876,49.405 45.766,48.452 C45.657,49.405 45.346,50.517 44.564,51.299 C43.784,52.081 42.67,52.391 41.717,52.501 L41.717,52.501 C42.67,52.611 43.782,52.921 44.564,53.704 C45.346,54.484 45.657,55.598 45.766,56.55 C45.876,55.598 46.187,54.487 46.968,53.704 C47.749,52.921 48.862,52.612 49.812,52.501 L49.814,52.501 C48.861,52.393 47.749,52.081 46.968,51.299 L46.968,51.299 Z" id="Shape"></path>
                <path d="M41.194,10.896 C40.413,10.114 40.102,9.002 39.993,8.049 C39.883,9.002 39.572,10.114 38.79,10.896 C38.009,11.678 36.895,11.988 35.944,12.098 L35.944,12.098 C36.895,12.208 38.007,12.518 38.79,13.3 C39.572,14.081 39.883,15.193 39.993,16.146 C40.102,15.193 40.413,14.081 41.194,13.3 C41.974,12.519 43.087,12.209 44.038,12.098 L44.041,12.098 C43.088,11.988 41.976,11.678 41.194,10.896 L41.194,10.896 Z" id="Shape"></path>
                <path d="M51.832,57.388 C51.52,57.077 51.397,56.634 51.353,56.255 C51.309,56.634 51.187,57.077 50.874,57.388 C50.562,57.7 50.12,57.824 49.74,57.867 L49.74,57.867 C50.12,57.911 50.561,58.034 50.874,58.346 C51.186,58.658 51.309,59.1 51.353,59.479 C51.398,59.1 51.521,58.658 51.832,58.346 C52.143,58.035 52.584,57.911 52.963,57.867 L52.964,57.867 C52.586,57.823 52.144,57.699 51.832,57.388 L51.832,57.388 Z" id="Shape"></path>
                <path d="M59.476,14.057 C59.164,13.745 59.04,13.303 58.997,12.924 C58.952,13.303 58.829,13.746 58.518,14.057 C58.206,14.368 57.764,14.492 57.384,14.536 L57.385,14.536 C57.764,14.58 58.206,14.703 58.518,15.015 C58.83,15.326 58.953,15.768 58.997,16.148 C59.04,15.769 59.164,15.326 59.476,15.015 C59.788,14.704 60.228,14.58 60.607,14.536 L60.61,14.536 C60.229,14.491 59.786,14.368 59.476,14.057 L59.476,14.057 Z" id="Shape"></path>
            </g>
            <path d="M220.154297,52.7167969 L220.810547,52.7167969 C221.166017,52.7167969 221.445311,52.6259775 221.648438,52.4443359 C221.851564,52.2626944 221.953125,51.9980486 221.953125,51.6503906 C221.953125,50.9785123 221.568363,50.6425781 220.798828,50.6425781 L220.154297,50.6425781 L220.154297,52.7167969 Z M222.5625,51.6210938 C222.5625,51.929689 222.487305,52.2021473 222.336914,52.4384766 C222.186523,52.6748059 221.970705,52.8593743 221.689453,52.9921875 L223.078125,55.2949219 L222.369141,55.2949219 L221.138672,53.1855469 L220.154297,53.1855469 L220.154297,55.2949219 L219.5625,55.2949219 L219.5625,50.1386719 L220.798828,50.1386719 C221.357425,50.1386719 221.791014,50.2597644 222.099609,50.5019531 C222.408205,50.7441418 222.5625,51.117185 222.5625,51.6210938 L222.5625,51.6210938 Z M216.585938,52.7167969 C216.585938,51.935543 216.781248,51.2031284 217.171875,50.5195312 C217.562502,49.8359341 218.099606,49.296877 218.783203,48.9023438 C219.4668,48.5078105 220.203121,48.3105469 220.992188,48.3105469 C221.773441,48.3105469 222.505856,48.5058574 223.189453,48.8964844 C223.87305,49.2871113 224.412107,49.8242153 224.806641,50.5078125 C225.201174,51.1914097 225.398438,51.9277304 225.398438,52.7167969 C225.398438,53.486332 225.208986,54.208981 224.830078,54.8847656 C224.45117,55.5605503 223.919925,56.1015605 223.236328,56.5078125 C222.552731,56.9140645 221.804692,57.1171875 220.992188,57.1171875 C220.18359,57.1171875 219.437503,56.9150411 218.753906,56.5107422 C218.070309,56.1064433 217.538088,55.5664096 217.157227,54.890625 C216.776365,54.2148404 216.585938,53.4902382 216.585938,52.7167969 L216.585938,52.7167969 Z M217.130859,52.7167969 C217.130859,53.4121129 217.303709,54.0556611 217.649414,54.6474609 C217.995119,55.2392608 218.464841,55.7089826 219.058594,56.0566406 C219.652347,56.4042986 220.296872,56.578125 220.992188,56.578125 C221.687503,56.578125 222.331052,56.4052752 222.922852,56.0595703 C223.514651,55.7138655 223.984373,55.2441436 224.332031,54.6503906 C224.679689,54.0566377 224.853516,53.4121129 224.853516,52.7167969 C224.853516,52.037106 224.686525,51.4023467 224.352539,50.8125 C224.018553,50.2226533 223.551761,49.7480487 222.952148,49.3886719 C222.352536,49.0292951 221.699222,48.8496094 220.992188,48.8496094 C220.304684,48.8496094 219.663089,49.0224592 219.067383,49.3681641 C218.471677,49.7138689 218.000002,50.187497 217.652344,50.7890625 C217.304686,51.390628 217.130859,52.0331997 217.130859,52.7167969 L217.130859,52.7167969 Z" id="Type-something"></path>
            <path d="M87.1503906,54.2021484 L84.9003906,54.2021484 L84.9003906,63 L84.0302734,63 L84.0302734,54.2021484 L82.2548828,54.2021484 L82.2548828,53.6923828 L84.0302734,53.3671875 L84.0302734,52.6289062 C84.0302734,51.4570254 84.2456033,50.5971707 84.6762695,50.0493164 C85.1069357,49.5014621 85.8115185,49.2275391 86.7900391,49.2275391 C87.3173854,49.2275391 87.8447239,49.3066398 88.3720703,49.4648438 L88.1699219,50.2207031 C87.7011695,50.074218 87.2353539,50.0009766 86.7724609,50.0009766 C86.09277,50.0009766 85.6108413,50.2016581 85.3266602,50.6030273 C85.042479,51.0043965 84.9003906,51.6562455 84.9003906,52.5585938 L84.9003906,53.4462891 L87.1503906,53.4462891 L87.1503906,54.2021484 Z M96.8974609,58.2099609 C96.8974609,59.7685625 96.519535,60.9858355 95.7636719,61.8618164 C95.0078087,62.7377973 93.9648504,63.1757812 92.6347656,63.1757812 C91.7968708,63.1757812 91.0585969,62.9736348 90.4199219,62.5693359 C89.7812468,62.165037 89.2919939,61.5849647 88.9521484,60.8291016 C88.612303,60.0732384 88.4423828,59.2002003 88.4423828,58.2099609 C88.4423828,56.6513594 88.8203087,55.4370161 89.5761719,54.5668945 C90.332035,53.696773 91.369134,53.2617188 92.6875,53.2617188 C94.0000066,53.2617188 95.0297814,53.7026323 95.7768555,54.5844727 C96.5239295,55.466313 96.8974609,56.674797 96.8974609,58.2099609 L96.8974609,58.2099609 Z M89.3564453,58.2099609 C89.3564453,59.5224675 89.6450166,60.546383 90.222168,61.2817383 C90.7993193,62.0170935 91.6152291,62.3847656 92.6699219,62.3847656 C93.7246146,62.3847656 94.5405245,62.0170935 95.1176758,61.2817383 C95.6948271,60.546383 95.9833984,59.5224675 95.9833984,58.2099609 C95.9833984,56.891595 95.6918974,55.8691443 95.1088867,55.1425781 C94.525876,54.416012 93.7070365,54.0527344 92.6523438,54.0527344 C91.597651,54.0527344 90.7846708,54.4145472 90.2133789,55.1381836 C89.642087,55.86182 89.3564453,56.8857356 89.3564453,58.2099609 L89.3564453,58.2099609 Z M103.304688,53.2617188 C103.708986,53.2617188 104.142576,53.302734 104.605469,53.3847656 L104.438477,54.2197266 C104.040037,54.1201167 103.626955,54.0703125 103.199219,54.0703125 C102.384762,54.0703125 101.716799,54.4160122 101.195312,55.1074219 C100.673826,55.7988316 100.413086,56.6718697 100.413086,57.7265625 L100.413086,63 L99.5429688,63 L99.5429688,53.4462891 L100.28125,53.4462891 L100.369141,55.1689453 L100.430664,55.1689453 C100.823244,54.4658168 101.242185,53.9721694 101.6875,53.6879883 C102.132815,53.4038072 102.671872,53.2617188 103.304688,53.2617188 L103.304688,53.2617188 Z M117.630859,58.4648438 L112.410156,58.4648438 L110.617188,63 L109.624023,63 L114.791992,50.0976562 L115.363281,50.0976562 L120.425781,63 L119.415039,63 L117.630859,58.4648438 Z M112.735352,57.65625 L117.332031,57.65625 L115.583008,53.0244141 C115.436523,52.661131 115.260743,52.1572298 115.055664,51.5126953 C114.89746,52.0751981 114.72461,52.5849587 114.537109,53.0419922 L112.735352,57.65625 Z M124.547852,62.4023438 C125.098636,62.4023438 125.5791,62.3554692 125.989258,62.2617188 L125.989258,62.9648438 C125.567381,63.1054695 125.081057,63.1757812 124.530273,63.1757812 C123.686519,63.1757812 123.063967,62.9501976 122.662598,62.4990234 C122.261228,62.0478493 122.060547,61.338872 122.060547,60.3720703 L122.060547,54.2021484 L120.645508,54.2021484 L120.645508,53.6923828 L122.060547,53.296875 L122.5,51.1347656 L122.948242,51.1347656 L122.948242,53.4462891 L125.751953,53.4462891 L125.751953,54.2021484 L122.948242,54.2021484 L122.948242,60.2490234 C122.948242,60.981449 123.077147,61.5234357 123.334961,61.875 C123.592775,62.2265643 123.997068,62.4023438 124.547852,62.4023438 L124.547852,62.4023438 Z M128.924805,63 L128.054688,63 L128.054688,49.3242188 L128.924805,49.3242188 L128.924805,63 Z M137.924805,63 L137.705078,61.4882812 L137.634766,61.4882812 C137.154294,62.1035187 136.660647,62.5385729 136.153809,62.793457 C135.64697,63.0483411 135.047855,63.1757812 134.356445,63.1757812 C133.418941,63.1757812 132.689456,62.9355493 132.167969,62.4550781 C131.646482,61.974607 131.385742,61.3095746 131.385742,60.4599609 C131.385742,59.5283157 131.773922,58.8046901 132.550293,58.2890625 C133.326664,57.7734349 134.450188,57.5009767 135.920898,57.4716797 L137.740234,57.4189453 L137.740234,56.7861328 C137.740234,55.8779251 137.555666,55.1923851 137.186523,54.7294922 C136.817381,54.2665992 136.22266,54.0351562 135.402344,54.0351562 C134.517574,54.0351562 133.600591,54.2812475 132.651367,54.7734375 L132.326172,54.0175781 C133.375005,53.5253882 134.412104,53.2792969 135.4375,53.2792969 C136.486333,53.2792969 137.270017,53.5517551 137.788574,54.0966797 C138.307131,54.6416043 138.566406,55.4912052 138.566406,56.6455078 L138.566406,63 L137.924805,63 Z M134.40918,62.3847656 C135.428716,62.3847656 136.232907,62.0932646 136.821777,61.5102539 C137.410647,60.9272432 137.705078,60.1171927 137.705078,59.0800781 L137.705078,58.1396484 L136.035156,58.2099609 C134.693353,58.2744144 133.736819,58.4838849 133.165527,58.8383789 C132.594235,59.1928729 132.308594,59.7451134 132.308594,60.4951172 C132.308594,61.0927764 132.491697,61.5571273 132.85791,61.8881836 C133.224123,62.2192399 133.741208,62.3847656 134.40918,62.3847656 L134.40918,62.3847656 Z M147.583984,60.5126953 C147.583984,61.3681683 147.258792,62.0258766 146.608398,62.4858398 C145.958005,62.9458031 145.035162,63.1757812 143.839844,63.1757812 C142.562494,63.1757812 141.548832,62.9794942 140.798828,62.5869141 L140.798828,61.6464844 C141.75977,62.1269555 142.773432,62.3671875 143.839844,62.3671875 C144.783208,62.3671875 145.499509,62.2104508 145.98877,61.8969727 C146.47803,61.5834945 146.722656,61.1660182 146.722656,60.6445312 C146.722656,60.1640601 146.527834,59.7597673 146.138184,59.4316406 C145.748533,59.103514 145.108403,58.7812516 144.217773,58.4648438 C143.262691,58.1191389 142.591799,57.8217786 142.205078,57.5727539 C141.818357,57.3237292 141.526856,57.042482 141.330566,56.7290039 C141.134276,56.4155258 141.036133,56.0332054 141.036133,55.5820312 C141.036133,54.8671839 141.336423,54.3017599 141.937012,53.8857422 C142.537601,53.4697245 143.376948,53.2617188 144.455078,53.2617188 C145.486333,53.2617188 146.464839,53.4550762 147.390625,53.8417969 L147.06543,54.6328125 C146.127925,54.2460918 145.257817,54.0527344 144.455078,54.0527344 C143.675777,54.0527344 143.057619,54.1816393 142.600586,54.4394531 C142.143552,54.6972669 141.915039,55.0546852 141.915039,55.5117188 C141.915039,56.0097681 142.092283,56.4082016 142.446777,56.7070312 C142.801271,57.0058609 143.494135,57.3398419 144.525391,57.7089844 C145.386723,58.0195328 146.01367,58.2993152 146.40625,58.5483398 C146.79883,58.7973645 147.093261,59.0800765 147.289551,59.3964844 C147.485841,59.7128922 147.583984,60.0849588 147.583984,60.5126953 L147.583984,60.5126953 Z M155.96875,60.5126953 C155.96875,61.3681683 155.643558,62.0258766 154.993164,62.4858398 C154.34277,62.9458031 153.419928,63.1757812 152.224609,63.1757812 C150.947259,63.1757812 149.933597,62.9794942 149.183594,62.5869141 L149.183594,61.6464844 C150.144536,62.1269555 151.158198,62.3671875 152.224609,62.3671875 C153.167973,62.3671875 153.884275,62.2104508 154.373535,61.8969727 C154.862795,61.5834945 155.107422,61.1660182 155.107422,60.6445312 C155.107422,60.1640601 154.9126,59.7597673 154.522949,59.4316406 C154.133299,59.103514 153.493169,58.7812516 152.602539,58.4648438 C151.647456,58.1191389 150.976564,57.8217786 150.589844,57.5727539 C150.203123,57.3237292 149.911622,57.042482 149.715332,56.7290039 C149.519042,56.4155258 149.420898,56.0332054 149.420898,55.5820312 C149.420898,54.8671839 149.721188,54.3017599 150.321777,53.8857422 C150.922366,53.4697245 151.761713,53.2617188 152.839844,53.2617188 C153.871099,53.2617188 154.849605,53.4550762 155.775391,53.8417969 L155.450195,54.6328125 C154.512691,54.2460918 153.642582,54.0527344 152.839844,54.0527344 C152.060543,54.0527344 151.442385,54.1816393 150.985352,54.4394531 C150.528318,54.6972669 150.299805,55.0546852 150.299805,55.5117188 C150.299805,56.0097681 150.477049,56.4082016 150.831543,56.7070312 C151.186037,57.0058609 151.878901,57.3398419 152.910156,57.7089844 C153.771489,58.0195328 154.398436,58.2993152 154.791016,58.5483398 C155.183596,58.7973645 155.478026,59.0800765 155.674316,59.3964844 C155.870606,59.7128922 155.96875,60.0849588 155.96875,60.5126953 L155.96875,60.5126953 Z M159.299805,63 L158.429688,63 L158.429688,53.4462891 L159.299805,53.4462891 L159.299805,63 Z M158.306641,50.7919922 C158.306641,50.2294894 158.491209,49.9482422 158.860352,49.9482422 C159.041993,49.9482422 159.184082,50.0214836 159.286621,50.1679688 C159.389161,50.3144539 159.44043,50.5224596 159.44043,50.7919922 C159.44043,51.0556654 159.389161,51.2636711 159.286621,51.4160156 C159.184082,51.5683601 159.041993,51.6445312 158.860352,51.6445312 C158.491209,51.6445312 158.306641,51.3603544 158.306641,50.7919922 L158.306641,50.7919922 Z M168.299805,63 L168.080078,61.4882812 L168.009766,61.4882812 C167.529294,62.1035187 167.035647,62.5385729 166.528809,62.793457 C166.02197,63.0483411 165.422855,63.1757812 164.731445,63.1757812 C163.793941,63.1757812 163.064456,62.9355493 162.542969,62.4550781 C162.021482,61.974607 161.760742,61.3095746 161.760742,60.4599609 C161.760742,59.5283157 162.148922,58.8046901 162.925293,58.2890625 C163.701664,57.7734349 164.825188,57.5009767 166.295898,57.4716797 L168.115234,57.4189453 L168.115234,56.7861328 C168.115234,55.8779251 167.930666,55.1923851 167.561523,54.7294922 C167.192381,54.2665992 166.59766,54.0351562 165.777344,54.0351562 C164.892574,54.0351562 163.975591,54.2812475 163.026367,54.7734375 L162.701172,54.0175781 C163.750005,53.5253882 164.787104,53.2792969 165.8125,53.2792969 C166.861333,53.2792969 167.645017,53.5517551 168.163574,54.0966797 C168.682131,54.6416043 168.941406,55.4912052 168.941406,56.6455078 L168.941406,63 L168.299805,63 Z M164.78418,62.3847656 C165.803716,62.3847656 166.607907,62.0932646 167.196777,61.5102539 C167.785647,60.9272432 168.080078,60.1171927 168.080078,59.0800781 L168.080078,58.1396484 L166.410156,58.2099609 C165.068353,58.2744144 164.111819,58.4838849 163.540527,58.8383789 C162.969235,59.1928729 162.683594,59.7451134 162.683594,60.4951172 C162.683594,61.0927764 162.866697,61.5571273 163.23291,61.8881836 C163.599123,62.2192399 164.116208,62.3847656 164.78418,62.3847656 L164.78418,62.3847656 Z M178.697266,63 L178.697266,56.8037109 C178.697266,55.8427686 178.495119,55.1440452 178.09082,54.7075195 C177.686521,54.2709939 177.059575,54.0527344 176.209961,54.0527344 C175.067377,54.0527344 174.23096,54.3413057 173.700684,54.918457 C173.170408,55.4956084 172.905273,56.4316342 172.905273,57.7265625 L172.905273,63 L172.035156,63 L172.035156,53.4462891 L172.773438,53.4462891 L172.94043,54.7558594 L172.993164,54.7558594 C173.614261,53.7597606 174.718742,53.2617188 176.306641,53.2617188 C178.47462,53.2617188 179.558594,54.4247931 179.558594,56.7509766 L179.558594,63 L178.697266,63 Z M185.438477,66.2431641 C184.899411,66.2431641 184.457033,66.1640633 184.111328,66.0058594 L184.111328,65.2324219 C184.568362,65.34961 185.004881,65.4082031 185.420898,65.4082031 C186.838874,65.4082031 187.547852,64.6347734 187.547852,63.0878906 L187.547852,50.1503906 L188.444336,50.1503906 L188.444336,63 C188.444336,65.1621202 187.442393,66.2431641 185.438477,66.2431641 L185.438477,66.2431641 Z M191.995117,63 L191.995117,50.1503906 L192.891602,50.1503906 L192.891602,63 L191.995117,63 Z M197.426758,57.4013672 L197.426758,63 L196.530273,63 L196.530273,50.1503906 L199.588867,50.1503906 C201.182625,50.1503906 202.360348,50.4448213 203.12207,51.0336914 C203.883793,51.6225615 204.264648,52.5087831 204.264648,53.6923828 C204.264648,54.5537152 204.0376,55.2802705 203.583496,55.8720703 C203.129392,56.4638701 202.439458,56.8886706 201.513672,57.1464844 L205.00293,63 L203.930664,63 L200.617188,57.4013672 L197.426758,57.4013672 Z M197.426758,56.6279297 L199.878906,56.6279297 C200.962896,56.6279297 201.803708,56.3862329 202.401367,55.902832 C202.999026,55.4194312 203.297852,54.7060594 203.297852,53.7626953 C203.297852,52.7841748 203.004886,52.0722679 202.418945,51.6269531 C201.833005,51.1816384 200.877936,50.9589844 199.553711,50.9589844 L197.426758,50.9589844 L197.426758,56.6279297 Z M213.414062,58.4648438 L208.193359,58.4648438 L206.400391,63 L205.407227,63 L210.575195,50.0976562 L211.146484,50.0976562 L216.208984,63 L215.198242,63 L213.414062,58.4648438 Z M208.518555,57.65625 L213.115234,57.65625 L211.366211,53.0244141 C211.219726,52.661131 211.043946,52.1572298 210.838867,51.5126953 C210.680663,52.0751981 210.507813,52.5849587 210.320312,53.0419922 L208.518555,57.65625 Z M238.467773,53.2617188 C239.803718,53.2617188 240.810055,53.6821247 241.486816,54.5229492 C242.163578,55.3637737 242.501953,56.5927654 242.501953,58.2099609 C242.501953,59.7978595 242.146,61.0224566 241.434082,61.8837891 C240.722164,62.7451215 239.721686,63.1757812 238.432617,63.1757812 C237.752926,63.1757812 237.140628,63.0351577 236.595703,62.7539062 C236.050779,62.4726548 235.620119,62.0742213 235.303711,61.5585938 L235.224609,61.5585938 L234.978516,63 L234.433594,63 L234.433594,49.3242188 L235.303711,49.3242188 L235.303711,52.7607422 C235.303711,53.2763698 235.291992,53.7509744 235.268555,54.1845703 L235.242188,54.9316406 L235.303711,54.9316406 C235.666994,54.357419 236.104978,53.9355482 236.617676,53.6660156 C237.130374,53.396483 237.747067,53.2617188 238.467773,53.2617188 L238.467773,53.2617188 Z M238.450195,54.0527344 C237.32519,54.0527344 236.519534,54.3749968 236.033203,55.0195312 C235.546873,55.6640657 235.303711,56.7275317 235.303711,58.2099609 L235.303711,58.359375 C235.303711,59.8007885 235.557126,60.8349578 236.063965,61.4619141 C236.570803,62.0888703 237.360346,62.4023438 238.432617,62.4023438 C239.475591,62.4023438 240.26074,62.0376013 240.788086,61.3081055 C241.315432,60.5786096 241.579102,59.5400458 241.579102,58.1923828 C241.579102,55.4326034 240.536143,54.0527344 238.450195,54.0527344 L238.450195,54.0527344 Z M243.1875,53.4462891 L244.083984,53.4462891 L246.105469,58.8076172 C246.720706,60.4541098 247.110351,61.5644503 247.274414,62.1386719 L247.327148,62.1386719 C247.573243,61.3828087 247.974607,60.2548903 248.53125,58.7548828 L250.552734,53.4462891 L251.449219,53.4462891 L247.168945,64.546875 C246.82324,65.4492233 246.533204,66.0585922 246.298828,66.375 C246.064452,66.6914078 245.790529,66.9287101 245.477051,67.0869141 C245.163573,67.245118 244.784182,67.3242188 244.338867,67.3242188 C244.004881,67.3242188 243.632815,67.2626959 243.222656,67.1396484 L243.222656,66.3837891 C243.562502,66.4775395 243.928709,66.5244141 244.321289,66.5244141 C244.620119,66.5244141 244.883788,66.4541023 245.112305,66.3134766 C245.340821,66.1728509 245.547362,65.9545913 245.731934,65.6586914 C245.916505,65.3627915 246.13037,64.8940462 246.373535,64.2524414 C246.6167,63.6108366 246.773437,63.1933603 246.84375,63 L243.1875,53.4462891 Z M261.539062,63.1757812 C260.173821,63.1757812 259.104496,62.7451215 258.331055,61.8837891 C257.557613,61.0224566 257.170898,59.8212968 257.170898,58.2802734 C257.170898,56.6982343 257.572262,55.466313 258.375,54.5844727 C259.177738,53.7026323 260.27636,53.2617188 261.670898,53.2617188 C262.497074,53.2617188 263.288082,53.405272 264.043945,53.6923828 L263.806641,54.4658203 C262.980465,54.1904283 262.262698,54.0527344 261.65332,54.0527344 C260.481439,54.0527344 259.593753,54.4145472 258.990234,55.1381836 C258.386716,55.86182 258.084961,56.9033135 258.084961,58.2626953 C258.084961,59.5517643 258.386716,60.5610315 258.990234,61.2905273 C259.593753,62.0200232 260.437495,62.3847656 261.521484,62.3847656 C262.388676,62.3847656 263.194332,62.2294937 263.938477,61.9189453 L263.938477,62.7275391 C263.329099,63.0263687 262.529302,63.1757812 261.539062,63.1757812 L261.539062,63.1757812 Z M274.177734,58.2099609 C274.177734,59.7685625 273.799808,60.9858355 273.043945,61.8618164 C272.288082,62.7377973 271.245124,63.1757812 269.915039,63.1757812 C269.077144,63.1757812 268.33887,62.9736348 267.700195,62.5693359 C267.06152,62.165037 266.572267,61.5849647 266.232422,60.8291016 C265.892576,60.0732384 265.722656,59.2002003 265.722656,58.2099609 C265.722656,56.6513594 266.100582,55.4370161 266.856445,54.5668945 C267.612308,53.696773 268.649407,53.2617188 269.967773,53.2617188 C271.28028,53.2617188 272.310055,53.7026323 273.057129,54.5844727 C273.804203,55.466313 274.177734,56.674797 274.177734,58.2099609 L274.177734,58.2099609 Z M266.636719,58.2099609 C266.636719,59.5224675 266.92529,60.546383 267.502441,61.2817383 C268.079593,62.0170935 268.895503,62.3847656 269.950195,62.3847656 C271.004888,62.3847656 271.820798,62.0170935 272.397949,61.2817383 C272.975101,60.546383 273.263672,59.5224675 273.263672,58.2099609 C273.263672,56.891595 272.972171,55.8691443 272.38916,55.1425781 C271.806149,54.416012 270.98731,54.0527344 269.932617,54.0527344 C268.877924,54.0527344 268.064944,54.4145472 267.493652,55.1381836 C266.92236,55.86182 266.636719,56.8857356 266.636719,58.2099609 L266.636719,58.2099609 Z M288.758789,63 L288.758789,56.7333984 C288.758789,55.8017532 288.57715,55.1220725 288.213867,54.6943359 C287.850584,54.2665994 287.293949,54.0527344 286.543945,54.0527344 C285.565425,54.0527344 284.841799,54.3222629 284.373047,54.8613281 C283.904295,55.4003933 283.669922,56.2470645 283.669922,57.4013672 L283.669922,63 L282.782227,63 L282.782227,56.4697266 C282.782227,54.8583904 282.043953,54.0527344 280.567383,54.0527344 C279.565425,54.0527344 278.83594,54.3442354 278.378906,54.9272461 C277.921873,55.5102568 277.693359,56.443353 277.693359,57.7265625 L277.693359,63 L276.823242,63 L276.823242,53.4462891 L277.543945,53.4462891 L277.728516,54.7558594 L277.78125,54.7558594 C278.044923,54.2812476 278.419919,53.9135755 278.90625,53.652832 C279.392581,53.3920885 279.928708,53.2617188 280.514648,53.2617188 C282.020515,53.2617188 282.987303,53.8271428 283.415039,54.9580078 L283.450195,54.9580078 C283.760744,54.4130832 284.17822,53.9941421 284.702637,53.7011719 C285.227053,53.4082017 285.823239,53.2617188 286.491211,53.2617188 C287.534185,53.2617188 288.316404,53.5400363 288.837891,54.0966797 C289.359378,54.6533231 289.620117,55.5380799 289.620117,56.7509766 L289.620117,63 L288.758789,63 Z M300.026367,59.6865234 C300.026367,60.7587944 299.632328,61.6083953 298.844238,62.2353516 C298.056148,62.8623078 297.008796,63.1757812 295.702148,63.1757812 C294.131828,63.1757812 292.927739,63.0029314 292.089844,62.6572266 L292.089844,61.7607422 C293.01563,62.1533223 294.196282,62.3496094 295.631836,62.3496094 C296.686529,62.3496094 297.522946,62.1079126 298.141113,61.6245117 C298.75928,61.1411109 299.068359,60.5068399 299.068359,59.7216797 C299.068359,59.2353491 298.965821,58.8325211 298.760742,58.5131836 C298.555663,58.1938461 298.221682,57.9023451 297.758789,57.6386719 C297.295896,57.3749987 296.616215,57.0908218 295.719727,56.7861328 C294.40722,56.3349587 293.500491,55.8471706 292.999512,55.3227539 C292.498533,54.7983372 292.248047,54.0996137 292.248047,53.2265625 C292.248047,52.2656202 292.624508,51.4819366 293.377441,50.8754883 C294.130375,50.2690399 295.098627,49.9658203 296.282227,49.9658203 C297.489264,49.9658203 298.623042,50.1943337 299.683594,50.6513672 L299.358398,51.4248047 C298.291987,50.97949 297.272466,50.7568359 296.299805,50.7568359 C295.350581,50.7568359 294.594729,50.9765603 294.032227,51.4160156 C293.469724,51.8554709 293.188477,52.4531212 293.188477,53.2089844 C293.188477,53.6835961 293.274901,54.0732407 293.447754,54.3779297 C293.620606,54.6826187 293.903318,54.9565418 294.295898,55.199707 C294.688479,55.4428723 295.3623,55.7343733 296.317383,56.0742188 C297.319341,56.4199236 298.072263,56.7553695 298.576172,57.0805664 C299.080081,57.4057633 299.447753,57.7749003 299.679199,58.1879883 C299.910646,58.6010763 300.026367,59.100583 300.026367,59.6865234 L300.026367,59.6865234 Z M300.922852,53.4462891 L301.819336,53.4462891 L303.84082,58.8076172 C304.456058,60.4541098 304.845702,61.5644503 305.009766,62.1386719 L305.0625,62.1386719 C305.308595,61.3828087 305.709958,60.2548903 306.266602,58.7548828 L308.288086,53.4462891 L309.18457,53.4462891 L304.904297,64.546875 C304.558592,65.4492233 304.268556,66.0585922 304.03418,66.375 C303.799804,66.6914078 303.52588,66.9287101 303.212402,67.0869141 C302.898924,67.245118 302.519533,67.3242188 302.074219,67.3242188 C301.740233,67.3242188 301.368166,67.2626959 300.958008,67.1396484 L300.958008,66.3837891 C301.297853,66.4775395 301.664061,66.5244141 302.056641,66.5244141 C302.35547,66.5244141 302.619139,66.4541023 302.847656,66.3134766 C303.076173,66.1728509 303.282714,65.9545913 303.467285,65.6586914 C303.651856,65.3627915 303.865721,64.8940462 304.108887,64.2524414 C304.352052,63.6108366 304.508789,63.1933603 304.579102,63 L300.922852,53.4462891 Z M316.708008,60.5126953 C316.708008,61.3681683 316.382816,62.0258766 315.732422,62.4858398 C315.082028,62.9458031 314.159186,63.1757812 312.963867,63.1757812 C311.686517,63.1757812 310.672855,62.9794942 309.922852,62.5869141 L309.922852,61.6464844 C310.883794,62.1269555 311.897456,62.3671875 312.963867,62.3671875 C313.907231,62.3671875 314.623533,62.2104508 315.112793,61.8969727 C315.602053,61.5834945 315.84668,61.1660182 315.84668,60.6445312 C315.84668,60.1640601 315.651857,59.7597673 315.262207,59.4316406 C314.872557,59.103514 314.232426,58.7812516 313.341797,58.4648438 C312.386714,58.1191389 311.715822,57.8217786 311.329102,57.5727539 C310.942381,57.3237292 310.65088,57.042482 310.45459,56.7290039 C310.2583,56.4155258 310.160156,56.0332054 310.160156,55.5820312 C310.160156,54.8671839 310.460446,54.3017599 311.061035,53.8857422 C311.661624,53.4697245 312.500971,53.2617188 313.579102,53.2617188 C314.610357,53.2617188 315.588863,53.4550762 316.514648,53.8417969 L316.189453,54.6328125 C315.251948,54.2460918 314.38184,54.0527344 313.579102,54.0527344 C312.799801,54.0527344 312.181643,54.1816393 311.724609,54.4394531 C311.267576,54.6972669 311.039062,55.0546852 311.039062,55.5117188 C311.039062,56.0097681 311.216307,56.4082016 311.570801,56.7070312 C311.925295,57.0058609 312.618159,57.3398419 313.649414,57.7089844 C314.510746,58.0195328 315.137693,58.2993152 315.530273,58.5483398 C315.922854,58.7973645 316.217284,59.0800765 316.413574,59.3964844 C316.609864,59.7128922 316.708008,60.0849588 316.708008,60.5126953 L316.708008,60.5126953 Z M321.691406,62.4023438 C322.24219,62.4023438 322.722654,62.3554692 323.132812,62.2617188 L323.132812,62.9648438 C322.710935,63.1054695 322.224612,63.1757812 321.673828,63.1757812 C320.830074,63.1757812 320.207522,62.9501976 319.806152,62.4990234 C319.404783,62.0478493 319.204102,61.338872 319.204102,60.3720703 L319.204102,54.2021484 L317.789062,54.2021484 L317.789062,53.6923828 L319.204102,53.296875 L319.643555,51.1347656 L320.091797,51.1347656 L320.091797,53.4462891 L322.895508,53.4462891 L322.895508,54.2021484 L320.091797,54.2021484 L320.091797,60.2490234 C320.091797,60.981449 320.220702,61.5234357 320.478516,61.875 C320.736329,62.2265643 321.140622,62.4023438 321.691406,62.4023438 L321.691406,62.4023438 Z M333.099609,58.2099609 C333.099609,59.7685625 332.721683,60.9858355 331.96582,61.8618164 C331.209957,62.7377973 330.166999,63.1757812 328.836914,63.1757812 C327.999019,63.1757812 327.260745,62.9736348 326.62207,62.5693359 C325.983395,62.165037 325.494142,61.5849647 325.154297,60.8291016 C324.814451,60.0732384 324.644531,59.2002003 324.644531,58.2099609 C324.644531,56.6513594 325.022457,55.4370161 325.77832,54.5668945 C326.534183,53.696773 327.571282,53.2617188 328.889648,53.2617188 C330.202155,53.2617188 331.23193,53.7026323 331.979004,54.5844727 C332.726078,55.466313 333.099609,56.674797 333.099609,58.2099609 L333.099609,58.2099609 Z M325.558594,58.2099609 C325.558594,59.5224675 325.847165,60.546383 326.424316,61.2817383 C327.001468,62.0170935 327.817378,62.3847656 328.87207,62.3847656 C329.926763,62.3847656 330.742673,62.0170935 331.319824,61.2817383 C331.896976,60.546383 332.185547,59.5224675 332.185547,58.2099609 C332.185547,56.891595 331.894046,55.8691443 331.311035,55.1425781 C330.728024,54.416012 329.909185,54.0527344 328.854492,54.0527344 C327.799799,54.0527344 326.986819,54.4145472 326.415527,55.1381836 C325.844235,55.86182 325.558594,56.8857356 325.558594,58.2099609 L325.558594,58.2099609 Z" id="for-Atlassian-JIRA--"></path>
            <path d="M84.7070312,32 L88.5917969,32 L88.5917969,24.1953125 L93.0917969,19.4667969 L100.070312,32 L104.675781,32 L95.6054688,16.4785156 L103.814453,6.37109375 L99.2089844,6.37109375 L88.6621094,19.5722656 L88.5917969,19.5722656 L88.5917969,6.37109375 L84.7070312,6.37109375 L84.7070312,32 Z M107.154297,32 L110.828125,32 L110.828125,13.7539062 L107.154297,13.7539062 L107.154297,32 Z M107.154297,10.0449219 L110.828125,10.0449219 L110.828125,6.37109375 L107.154297,6.37109375 L107.154297,10.0449219 Z M115.890625,13.7539062 L114.0625,13.7539062 L114.0625,16.5488281 L115.890625,16.5488281 L115.890625,27.5 C115.890625,28.9414135 116.312496,30.0429649 117.15625,30.8046875 C117.976567,31.6015665 119.031244,32 120.320312,32 L122.236328,32 L122.236328,28.5371094 L120.865234,28.5371094 C119.974605,28.560547 119.541016,28.1093796 119.564453,27.1835938 L119.564453,16.5488281 L122.236328,16.5488281 L122.236328,13.7539062 L119.564453,13.7539062 L119.564453,8.19921875 L115.890625,8.19921875 L115.890625,13.7539062 Z M136.404297,26.6386719 C135.478511,27.8808656 134.242195,28.5136718 132.695312,28.5371094 C129.578109,28.5957034 127.996094,26.7148629 127.949219,22.8945312 C127.996094,19.050762 129.578109,17.1523435 132.695312,17.1992188 C134.242195,17.246094 135.478511,17.8847595 136.404297,19.1152344 L139.111328,16.7070312 C138.314449,15.7460889 137.376959,14.9785185 136.298828,14.4042969 C135.220698,13.8417941 133.972663,13.5488282 132.554688,13.5253906 C130.398427,13.501953 128.505868,14.2226489 126.876953,15.6875 C125.189445,17.1757887 124.322266,19.5781084 124.275391,22.8945312 C124.322266,26.1757977 125.189445,28.5488208 126.876953,30.0136719 C128.505868,31.4785229 130.398427,32.2109375 132.554688,32.2109375 C133.972663,32.1874999 135.220698,31.8769561 136.298828,31.2792969 C137.376959,30.7050753 138.314449,29.9609421 139.111328,29.046875 L136.404297,26.6386719 Z M141.660156,32 L145.333984,32 L145.333984,21.1367188 C145.333984,19.8593686 145.679684,18.8867221 146.371094,18.21875 C147.050785,17.5390591 147.917963,17.1992188 148.972656,17.1992188 C150.027349,17.1992188 150.888669,17.5390591 151.556641,18.21875 C152.236332,18.8867221 152.576172,19.8593686 152.576172,21.1367188 L152.576172,32 L156.25,32 L156.25,19.8710938 C156.191406,17.7851458 155.541022,16.2031304 154.298828,15.125 C153.044916,14.0585884 151.662117,13.5253906 150.150391,13.5253906 C148.19335,13.5253906 146.611334,14.2460865 145.404297,15.6875 L145.333984,15.6875 L145.333984,6.37109375 L141.660156,6.37109375 L141.660156,32 Z M175.146484,24.265625 L175.146484,21.2421875 C175.123047,18.8398317 174.378914,16.9531319 172.914062,15.5820312 C171.472649,14.2343683 169.708995,13.5488282 167.623047,13.5253906 C166.755855,13.5253906 165.876958,13.6835922 164.986328,14 C164.08398,14.3164078 163.269535,14.8320277 162.542969,15.546875 C161.828121,16.2500035 161.24219,17.2109314 160.785156,18.4296875 C160.328123,19.625006 160.099609,21.124991 160.099609,22.9296875 C160.099609,24.8046969 160.363279,26.3281191 160.890625,27.5 C161.371096,28.7187561 161.998043,29.6679654 162.771484,30.3476563 C163.169924,30.6757829 163.597654,30.9511708 164.054688,31.1738281 C164.488283,31.4316419 164.933591,31.636718 165.390625,31.7890625 C166.304692,32.0703139 167.242183,32.2109375 168.203125,32.2109375 C170.722669,32.2343751 172.914053,31.25001 174.777344,29.2578125 L172.123047,26.9902344 C170.951166,28.173834 169.621101,28.765625 168.132812,28.765625 C166.855462,28.765625 165.824223,28.3789101 165.039062,27.6054688 C164.195308,26.8437462 163.773438,25.7304761 163.773438,24.265625 L175.146484,24.265625 Z M163.773438,21.2421875 C163.84375,19.8242117 164.224606,18.7519568 164.916016,18.0253906 C165.619144,17.3339809 166.521479,16.9882812 167.623047,16.9882812 C168.724615,16.9882812 169.62695,17.3339809 170.330078,18.0253906 C171.044925,18.7519568 171.425781,19.8242117 171.472656,21.2421875 L163.773438,21.2421875 Z M178.996094,32 L182.669922,32 L182.669922,21.1367188 C182.669922,19.8593686 183.015622,18.8867221 183.707031,18.21875 C184.386722,17.5390591 185.253901,17.1992188 186.308594,17.1992188 C187.363287,17.1992188 188.224606,17.5390591 188.892578,18.21875 C189.572269,18.8867221 189.912109,19.8593686 189.912109,21.1367188 L189.912109,32 L193.585938,32 L193.585938,19.8710938 C193.527343,17.7851458 192.876959,16.2031304 191.634766,15.125 C190.380853,14.0585884 188.998054,13.5253906 187.486328,13.5253906 C185.529287,13.5253906 183.947272,14.2460865 182.740234,15.6875 L182.669922,15.6875 L182.669922,13.7539062 L178.996094,13.7539062 L178.996094,32 Z M207.296875,32 L215.998047,32 C217.919931,32 219.542962,31.5781292 220.867188,30.734375 C222.203132,29.9492148 223.24609,28.953131 223.996094,27.7460938 C224.277345,27.2890602 224.517577,26.8496115 224.716797,26.4277344 C224.904298,25.9941385 225.044921,25.5019559 225.138672,24.9511719 C225.337892,23.8613227 225.4375,21.9394669 225.4375,19.1855469 C225.4375,16.5956902 225.373048,14.7734428 225.244141,13.71875 C225.080077,12.6640572 224.687503,11.6562548 224.066406,10.6953125 C222.332023,7.8359232 219.730486,6.39453137 216.261719,6.37109375 L207.296875,6.37109375 L207.296875,32 Z M211.181641,10.0449219 L215.822266,10.0449219 C217.791025,9.99804664 219.314448,10.7187426 220.392578,12.2070312 C220.919925,12.8046905 221.253906,13.5839796 221.394531,14.5449219 C221.500001,15.5058642 221.552734,17.0995982 221.552734,19.3261719 C221.552734,21.6113396 221.500001,23.1699177 221.394531,24.0019531 C221.277343,24.8457073 221.001955,25.542966 220.568359,26.09375 C219.583979,27.5820387 218.001964,28.3261719 215.822266,28.3261719 L211.181641,28.3261719 L211.181641,10.0449219 Z M229.638672,25.8828125 C229.662109,27.9453228 230.335931,29.503901 231.660156,30.5585938 C232.878912,31.6367241 234.244133,32.1874999 235.755859,32.2109375 C237.701182,32.2109375 239.277338,31.4902416 240.484375,30.0488281 L240.554688,30.0488281 L240.554688,32 L244.228516,32 L244.228516,13.7539062 L240.554688,13.7539062 L240.554688,24.6171875 C240.554688,25.8476624 240.214847,26.8085903 239.535156,27.5 C238.867184,28.1914097 238.005865,28.5371094 236.951172,28.5371094 C235.896479,28.5371094 235.0293,28.1914097 234.349609,27.5 C233.6582,26.8085903 233.3125,25.8476624 233.3125,24.6171875 L233.3125,13.7539062 L229.638672,13.7539062 L229.638672,25.8828125 Z M249.185547,13.7539062 L247.357422,13.7539062 L247.357422,16.5488281 L249.185547,16.5488281 L249.185547,27.5 C249.185547,28.9414135 249.607418,30.0429649 250.451172,30.8046875 C251.271488,31.6015665 252.326165,32 253.615234,32 L255.53125,32 L255.53125,28.5371094 L254.160156,28.5371094 C253.269527,28.560547 252.835937,28.1093796 252.859375,27.1835938 L252.859375,16.5488281 L255.53125,16.5488281 L255.53125,13.7539062 L252.859375,13.7539062 L252.859375,8.19921875 L249.185547,8.19921875 L249.185547,13.7539062 Z M262.896484,31.2792969 L261.894531,34.3378906 C261.730468,34.865237 261.443361,35.2636705 261.033203,35.5332031 C260.623045,35.7910169 260.177737,35.9199219 259.697266,35.9199219 L258.625,35.9199219 L258.625,39.3828125 L259.837891,39.3828125 C260.974615,39.3828125 261.994136,39.1308619 262.896484,38.6269531 C263.787114,38.0996067 264.484372,37.1503975 264.988281,35.7792969 L272.845703,13.7539062 L268.943359,13.7539062 L264.636719,26.5332031 L264.566406,26.5332031 L260.242188,13.7539062 L256.357422,13.7539062 L262.896484,31.2792969 Z M287.804688,10.0449219 L293.412109,10.0449219 C294.466802,10.0214843 295.392574,10.2617162 296.189453,10.765625 C296.7168,11.070314 297.126952,11.4863255 297.419922,12.0136719 C297.701173,12.5996123 297.841797,13.3203082 297.841797,14.1757812 C297.841797,15.2070364 297.496097,16.144527 296.804688,16.9882812 C296.078121,17.8554731 294.994148,18.3007811 293.552734,18.3242188 L287.804688,18.3242188 L287.804688,10.0449219 Z M283.919922,32 L287.804688,32 L287.804688,21.9980469 L293.710938,21.9980469 C296.347669,21.9511716 298.351556,21.1074301 299.722656,19.4667969 C301.0586,17.9081953 301.726562,16.179697 301.726562,14.28125 C301.726562,12.874993 301.462893,11.6562552 300.935547,10.625 C300.431638,9.55858842 299.775395,8.73828412 298.966797,8.1640625 C298.005855,7.40233994 297.056645,6.89843873 296.119141,6.65234375 C295.181636,6.46484281 294.208989,6.37109375 293.201172,6.37109375 L283.919922,6.37109375 L283.919922,32 Z M304.925781,27.5703125 C304.925781,29.1757893 305.382808,30.318356 306.296875,30.9980469 C307.164067,31.666019 308.265618,32 309.601562,32 L311.236328,32 L311.236328,28.5371094 L309.970703,28.5371094 C309.056636,28.5371094 308.599609,28.1210979 308.599609,27.2890625 L308.599609,6.37109375 L304.925781,6.37109375 L304.925781,27.5703125 Z M314.207031,25.8828125 C314.230469,27.9453228 314.90429,29.503901 316.228516,30.5585938 C317.447272,31.6367241 318.812492,32.1874999 320.324219,32.2109375 C322.269541,32.2109375 323.845697,31.4902416 325.052734,30.0488281 L325.123047,30.0488281 L325.123047,32 L328.796875,32 L328.796875,13.7539062 L325.123047,13.7539062 L325.123047,24.6171875 C325.123047,25.8476624 324.783207,26.8085903 324.103516,27.5 C323.435544,28.1914097 322.574224,28.5371094 321.519531,28.5371094 C320.464838,28.5371094 319.59766,28.1914097 318.917969,27.5 C318.226559,26.8085903 317.880859,25.8476624 317.880859,24.6171875 L317.880859,13.7539062 L314.207031,13.7539062 L314.207031,25.8828125 Z M343.808594,30.0839844 L343.808594,31.9648438 C343.785156,33.2070375 343.398441,34.179684 342.648438,34.8828125 C341.886715,35.5742222 340.878913,35.9199219 339.625,35.9199219 C338.957028,35.8964843 338.312503,35.7148454 337.691406,35.375 C337.082028,35.070311 336.542971,34.701174 336.074219,34.2675781 L333.226562,36.5351562 C334.972665,38.5273537 337.082019,39.5468748 339.554688,39.59375 C341.710948,39.59375 343.562492,38.9316472 345.109375,37.6074219 C346.644539,36.3183529 347.435547,34.3027481 347.482422,31.5605469 L347.482422,13.7539062 L343.808594,13.7539062 L343.808594,15.6875 C342.484368,14.2460865 340.914072,13.5253906 339.097656,13.5253906 C337.914057,13.5488282 336.929691,13.7773416 336.144531,14.2109375 C335.324215,14.667971 334.697268,15.1835909 334.263672,15.7578125 C333.783201,16.3437529 333.437501,17.0644488 333.226562,17.9199219 C333.003905,18.7871137 332.892578,20.4453003 332.892578,22.8945312 C332.892578,25.296887 333.003905,26.925777 333.226562,27.78125 C333.437501,28.6484418 333.783201,29.3808564 334.263672,29.9785156 C334.697268,30.505862 335.324215,30.9980446 336.144531,31.4550781 C336.929691,31.9355493 337.914057,32.1874999 339.097656,32.2109375 C341.03126,32.1640623 342.601556,31.455085 343.808594,30.0839844 L343.808594,30.0839844 Z M336.566406,22.8945312 C336.566406,21.4765554 336.613281,20.4921903 336.707031,19.9414062 C336.789063,19.3906222 336.98242,18.9453142 337.287109,18.6054688 C337.533204,18.2773421 337.908201,17.9550797 338.412109,17.6386719 C338.892581,17.3691393 339.490231,17.2226564 340.205078,17.1992188 C340.919925,17.2226564 341.517576,17.3691393 341.998047,17.6386719 C342.478518,17.9550797 342.841796,18.2773421 343.087891,18.6054688 C343.39258,18.9453142 343.597656,19.3906222 343.703125,19.9414062 C343.773438,20.4921903 343.808594,21.4765554 343.808594,22.8945312 C343.808594,24.2890695 343.773438,25.2499974 343.703125,25.7773438 C343.597656,26.3281278 343.39258,26.7851544 343.087891,27.1484375 C342.841796,27.4765641 342.478518,27.7753893 341.998047,28.0449219 C341.517576,28.3730485 340.919925,28.5371094 340.205078,28.5371094 C339.490231,28.5371094 338.892581,28.3730485 338.412109,28.0449219 C337.908201,27.7753893 337.533204,27.4765641 337.287109,27.1484375 C336.98242,26.7851544 336.789063,26.3281278 336.707031,25.7773438 C336.613281,25.2499974 336.566406,24.2890695 336.566406,22.8945312 L336.566406,22.8945312 Z M352.333984,32 L356.007812,32 L356.007812,13.7539062 L352.333984,13.7539062 L352.333984,32 Z M352.333984,10.0449219 L356.007812,10.0449219 L356.007812,6.37109375 L352.333984,6.37109375 L352.333984,10.0449219 Z M360.859375,32 L364.533203,32 L364.533203,21.1367188 C364.533203,19.8593686 364.878903,18.8867221 365.570312,18.21875 C366.250003,17.5390591 367.117182,17.1992188 368.171875,17.1992188 C369.226568,17.1992188 370.087887,17.5390591 370.755859,18.21875 C371.43555,18.8867221 371.775391,19.8593686 371.775391,21.1367188 L371.775391,32 L375.449219,32 L375.449219,19.8710938 C375.390625,17.7851458 374.740241,16.2031304 373.498047,15.125 C372.244134,14.0585884 370.861336,13.5253906 369.349609,13.5253906 C367.392568,13.5253906 365.810553,14.2460865 364.603516,15.6875 L364.533203,15.6875 L364.533203,13.7539062 L360.859375,13.7539062 L360.859375,32 Z" id="Kitchen-Duty-Plugin"></path>
        </g>
    </g>
</svg>