<svg width="1122" height="1122" xmlns="http://www.w3.org/2000/svg"><g fill="none" fill-rule="evenodd"><path d="M1012.222 711c-27.524 70.524-98.05 137.771-200.218 137.771-133.587 0-124.506-53.927-199.237-53.927-74.73 0-99.178 56.68-217.137 53.927C303.247 846.616 230.871 788.314 205 711h15.9c25.52 70.065 92.604 120.851 175.085 122.776 26.751.624 49.59-1.878 70.531-7.162 16.534-4.172 30.594-9.55 49.667-18.36-.666.308 18.823-8.828 24.31-11.271 26.32-11.717 46.827-17.14 72.274-17.14 26.986 0 44.875 5.654 67.574 18.709 2.178 1.252 13.976 8.254 17.459 10.229 13.815 7.836 25.78 13.012 41.112 17.07 19.527 5.168 43.2 7.92 73.092 7.92 58.007 0 108.417-23.317 145.51-63.49 16.418-17.783 29.453-38.216 38.424-59.281h16.284z" fill="#fff" fill-rule="nonzero"/><path fill="#fff" d="M200 520h15l6.081 191.175-15.857-.175zM997 517h15v194.213h-16.098z"/><circle stroke="#fff" stroke-width="10" cx="407" cy="493" r="27"/><circle stroke="#fff" stroke-width="10" cx="322.5" cy="580.5" r="22.5"/><circle stroke="#fff" stroke-width="10" cx="491" cy="595" r="37"/><circle stroke="#fff" stroke-width="10" cx="606" cy="499" r="21"/><circle stroke="#fff" stroke-width="10" cx="799" cy="493" r="21"/><circle stroke="#fff" stroke-width="10" cx="753.5" cy="614.5" r="32.5"/><circle stroke="#fff" stroke-width="10" cx="869" cy="574" r="21"/><circle stroke="#fff" stroke-width="10" cx="439.5" cy="135.5" r="50.5"/><circle stroke="#fff" stroke-width="10" cx="331" cy="243" r="31"/><circle stroke="#fff" stroke-width="10" cx="902" cy="105" r="34"/><circle stroke="#fff" stroke-width="10" cx="692" cy="1027" r="34"/><path d="M203.903 656.37v10c-20.014.03-35.285 5.368-46.07 15.897-20.293 19.81-22.405 42.431-6.254 69.367l2.244 3.742-3.404 2.73c-52.55 42.14-63.641 80.062-35.11 115.666 29.013 36.208 62.281 42.813 101.537 20.224l9.061-5.214-1.628 10.327c-3.349 21.237 2.867 38.127 18.844 51.336 15.777 13.044 38.14 14.23 67.689 3.03l7.426-2.814-.672 7.913c-4.49 52.876 11.442 79.194 48.06 81.652 77.42 5.197 117.044-27.038 120.981-98.042l.643-11.594 7.981 8.434c24.106 25.474 45.78 28.95 66.986 11.421 21.876-18.083 28.734-40.913 20.787-69.423l-2.343-8.404 8.436 2.227c26.682 7.046 46.105 2.027 59.283-14.906 11.061-14.212 13.307-29.842 6.776-47.545a864.815 864.815 0 0 0-6.32-14.608l11.353.973a884.36 884.36 0 0 1 4.225 9.853c7.847 21.156 5.094 40.462-8.142 57.469-14.414 18.52-35.247 25.23-61.735 20.246 5.623 28.741-3.08 52.922-25.949 71.826-23.22 19.193-47.999 17.372-72.878-4.727-7.706 69.428-51.897 102.071-130.754 96.778-41.122-2.76-60.488-31.816-57.871-84.814-29.23 9.504-52.833 7.23-70.333-7.238-16.255-13.438-24.064-30.597-23.297-51.041-40.157 19.495-75.948 10.356-105.95-27.086-31.91-39.82-20.22-82.755 33.335-127.016-16.05-29.284-12.74-55.692 10.007-77.897 12.805-12.5 30.578-18.708 53.056-18.741zM924.428 383.655l-1.987-7.417 1.838-1.208 1.508-.648c18.15-4.29 30.697-11.763 37.925-22.385 12.732-18.709 10.088-35.469-8.29-51.345l-2.552-2.205 2.25-2.711c34.738-41.85 36.466-71.597 6.316-91.012-30.662-19.744-59.08-17.23-86.746 7.626l-6.386 5.737-.665-7.796c-1.368-16.033-9.7-26.843-25.285-32.867-15.39-5.949-33.864-1.914-55.81 12.614l-5.515 3.651-.98-5.848c-6.544-39.078-24.624-54.557-54.973-48.323-64.168 13.18-90.273 45.068-79.778 97.086l1.714 8.494-8.14-4.332c-24.584-13.084-42.938-10.85-56.855 6.415-14.357 17.811-15.546 35.76-3.558 54.563l3.534 5.543-7.312.239c-23.13.757-38.007 8.62-45.49 23.7-6.28 12.657-5.095 24.41 3.65 35.736 2.6 3.041 5.2 6.022 7.798 8.943l-8.253 2.212a619.658 619.658 0 0 1-6.063-6.988c-10.488-13.533-11.97-28.05-4.455-43.2 8.184-16.5 23.887-25.89 46.462-28.09-10.139-19.485-7.707-38.816 7.301-57.44 15.239-18.91 35.809-23.016 60.376-12.527-7.12-51.724 22.633-84.913 87.997-98.338 34.086-7 55.499 9.706 63.598 48.476 22.015-13.24 41.712-16.762 58.785-10.16 15.858 6.132 25.543 16.792 28.866 31.694 29-22.83 59.968-24.068 91.679-3.642 33.726 21.724 32.48 55.225-2.67 98.834 18.752 17.597 21.15 37.354 6.879 58.331-8.446 12.415-22.714 21.016-42.53 25.84l-4.183 2.748z" fill="#fff" fill-rule="nonzero"/><path d="M402.586 368.088c-48.255 3.96-93.991 18.23-127.578 41.29-37.867 26-58.959 61.774-59.963 107.475-2.257 102.71 77.208 187.744 182.023 190.241 26.153.623 48.476-1.874 68.941-7.148 16.161-4.165 29.909-9.537 48.565-18.338-.655.31 18.43-8.828 23.806-11.273 25.813-11.737 45.943-17.173 70.927-17.173 26.503 0 44.08 5.673 66.352 18.756 2.135 1.254 13.685 8.255 17.092 10.229 13.505 7.823 25.194 12.988 40.172 17.036 19.081 5.159 42.223 7.907 71.454 7.907 56.68 0 105.952-23.278 142.232-63.41C979.043 607.802 998 561.113 998 520.186c0-39.717-16.57-81.367-45.105-112.986-30.268-33.54-70.98-52.882-115.999-52.882-23.17 0-45.423 2.594-68.016 7.545-18.219 3.993-35.45 9.147-57.817 16.887-5.437 1.882-23.524 8.28-26.342 9.262-10.162 3.545-17.908 6.103-25.337 8.308-19.05 5.651-34.816 8.512-50.077 8.512-5.66 0-11.392-.361-17.267-1.066-10.947-1.313-22.18-3.765-35.382-7.512-5.221-1.481-10.647-3.13-17.468-5.286-3.053-.964-14.839-4.736-17.658-5.628-22.361-7.076-37.695-11.194-54.552-14.166-21.283-3.752-42.24-4.903-64.394-3.086zm-1.227-14.95c93.55-7.675 148.912 36.694 207.948 36.694 59.035 0 123.369-50.514 227.59-50.514 104.22 0 176.103 93.93 176.103 180.868 0 86.937-77.83 201.904-208.623 201.904s-121.902-53.928-195.07-53.928c-73.168 0-97.104 56.68-212.596 53.928-115.492-2.752-199.047-97.041-196.662-205.567 2.385-108.525 107.762-155.709 201.31-163.384z" fill="#fff" fill-rule="nonzero"/></g></svg>
