<?xml version="1.0" encoding="UTF-8" standalone="no"?>
<svg width="1043px" height="654px" viewBox="0 0 1043 654" version="1.1" xmlns="http://www.w3.org/2000/svg" xmlns:xlink="http://www.w3.org/1999/xlink">
    <defs></defs>
    <g id="Page-1" stroke="none" stroke-width="1" fill="none" fill-rule="evenodd">
        <g id="kitchen-duty-planning-page--component-overview">
            <g id="jira">
                <path d="M1033.68224,10.296782 C1033.72224,10.463782 1033.88924,10.501782 1033.88824,10.708782 C1034.05224,12.947782 1033.88424,15.018782 1034.09424,17.291782 C1034.31024,19.631782 1033.83624,21.643782 1033.47724,24.079782 C1033.16124,26.219782 1033.62124,28.634782 1033.47724,31.073782 C1033.33524,33.462782 1032.73624,35.727782 1032.86024,37.862782 C1033.13124,42.525782 1033.24224,46.947782 1033.06524,51.439782 C1032.88824,55.944782 1033.51024,60.402782 1033.06524,65.016782 C1010.25924,63.870782 987.05224,61.376782 963.74224,64.604782 C958.03424,65.395782 952.02424,64.873782 946.05224,65.427782 C940.00024,65.989782 933.92624,65.806782 927.94924,65.839782 C915.96224,65.903782 903.93724,66.911782 892.56724,66.456782 C869.15824,65.520782 845.53924,66.985782 821.80424,66.250782 C810.33824,65.895782 798.67924,66.661782 787.03924,66.661782 C766.95024,66.661782 745.53524,66.803782 726.97324,66.867782 C718.21424,66.897782 710.49024,68.110782 702.49424,67.896782 C698.11424,67.778782 693.66624,67.667782 689.53524,67.484782 C683.08724,67.199782 675.91924,67.992782 669.17024,68.101782 C663.79624,68.188782 658.31524,67.483782 652.91924,67.278782 C641.97624,66.862782 630.83224,66.506782 619.59524,66.661782 C608.00224,66.821782 596.55224,65.537782 585.03524,65.427782 C561.25624,65.199782 538.71724,64.346782 516.53524,64.399782 C504.91324,64.426782 493.22524,64.100782 481.56424,64.193782 C477.80324,64.223782 474.02924,64.741782 470.25124,64.810782 C441.78524,65.331782 415.36024,67.394782 388.17424,67.484782 C372.47624,67.536782 356.81324,67.028782 341.06724,66.456782 C325.51224,65.891782 309.81524,64.753782 294.16624,64.810782 C286.42624,64.838782 278.62624,64.147782 270.92124,64.193782 C266.90824,64.216782 262.89424,64.636782 258.99024,64.193782 C254.89624,63.728782 250.91524,63.514782 246.85324,63.576782 C231.10824,63.816782 215.50224,63.350782 199.74624,64.193782 C192.28824,64.592782 184.73424,64.209782 177.11924,64.604782 C161.29524,65.425782 145.13124,65.042782 127.95524,65.221782 C119.80924,65.306782 111.47824,64.464782 103.27024,64.810782 C95.4282399,65.141782 87.6532399,66.643782 79.6142399,66.867782 C71.8542399,67.083782 63.8522399,67.154782 55.9582399,66.661782 C39.9182399,65.660782 24.2582399,68.362782 9.05723987,67.484782 C8.44523987,65.903782 8.53323987,63.576782 8.44023987,61.107782 C8.36023987,58.981782 8.88023987,56.706782 8.85223987,54.524782 C8.79323987,50.058782 9.17323987,45.525782 8.85223987,41.153782 C8.18523987,32.067782 9.93523987,23.322782 9.46923987,14.617782 C14.1542399,14.949782 19.9002399,13.967782 25.7192399,13.794782 C32.1472399,13.604782 37.9232399,13.678782 43.6162399,13.382782 C46.2812399,13.244782 49.0392399,13.026782 51.6382399,12.765782 C57.1172399,12.215782 62.5892399,12.516782 67.8892399,11.942782 C73.2082399,11.366782 78.6942399,11.410782 84.1392399,11.119782 C89.6132399,10.827782 95.1552399,10.855782 100.59624,10.913782 C122.24524,11.147782 143.87024,10.825782 165.60024,10.707782 C176.75824,10.646782 187.94624,10.288782 199.13024,10.707782 C210.08124,11.117782 221.04624,10.295782 232.04324,10.295782 C248.58524,10.295782 265.06224,9.27478199 281.61824,9.88478199 C287.24424,10.091782 292.87024,10.858782 298.48624,10.912782 C310.59024,11.029782 322.51724,8.82478199 334.48524,9.06078199 C346.63824,9.30078199 358.79824,10.049782 371.10124,10.912782 C383.42724,11.776782 395.66324,12.860782 407.71724,12.969782 C419.24324,13.073782 430.59924,11.058782 442.27624,11.117782 C454.51624,11.180782 466.78324,10.169782 479.09824,9.67778199 C491.16524,9.19578199 503.29624,9.43778199 515.30324,9.06078199 C527.55924,8.67678199 539.85924,9.06978199 552.12424,9.47278199 C563.96124,9.86178199 575.74024,9.75678199 587.50624,10.089782 C611.30724,10.762782 635.47824,10.331782 659.70924,9.26678199 C671.91724,8.72978199 684.11024,7.89178199 696.32524,7.82678199 C720.01824,7.69978199 743.35724,6.45378199 767.29424,7.41478199 C779.28024,7.89578199 791.32224,7.87278199 803.49824,7.62078199 C815.52724,7.37178199 827.86324,8.02378199 840.11424,7.00378199 C852.61224,5.96278199 865.20024,7.68178199 877.34724,6.59278199 C883.29024,6.05978199 891.30024,6.55078199 897.91724,6.79878199 C917.79924,7.54378199 936.72124,7.10778199 955.92724,7.00478199 C968.76324,6.93578199 981.44224,7.96378199 994.18924,8.65078199 C1007.22324,9.35378199 1020.37324,8.96278199 1033.68224,10.296782 L1033.68224,10.296782 Z" id="fill7" fill="#FFFFFF"></path>
                <path d="M1042.011,4.229 C1042.288,5.064 1041.555,6.035 1041.394,7.726 C1041.05,11.334 1041.359,15.467 1041.188,19.657 C1041.079,22.365 1041.637,25.092 1041.394,27.886 C1041.162,30.554 1041.373,33.046 1041.188,35.703 C1040.809,41.177 1041.358,46.644 1041.394,53.393 C1041.406,55.586 1040.923,58.237 1040.777,61.622 C1040.61,65.492 1042.526,69.068 1040.16,71.084 C1036.768,73.975 1031.272,71.823 1026.789,71.29 C1021.883,70.707 1016.567,70.702 1011.361,70.262 C1008.603,70.029 1005.727,69.945 1002.927,69.85 C990.893,69.444 976.68,69.243 963.637,70.467 C942.239,72.476 920.228,71.225 898.016,72.113 C886.812,72.561 875.306,71.907 863.869,71.907 C852.819,71.907 841.72,72.268 830.956,71.907 C808.776,71.164 786.768,72.165 766.364,72.113 C743.761,72.055 723.721,72.678 702.389,73.347 C696.931,73.518 691.438,73.223 686.138,73.141 C681.103,73.063 676.244,73.589 671.326,73.347 C661.053,72.841 650.664,72.559 639.647,72.113 C628.965,71.68 618.325,71.987 607.762,71.701 C597.23,71.417 586.762,70.522 576.494,70.467 C555.513,70.354 535.319,69.087 514.37,69.439 C504.545,69.604 494.696,69.568 484.748,69.645 C474.836,69.722 464.956,70.519 454.509,70.674 C443.968,70.83 433.27,71.245 422.419,71.702 C390.989,73.027 357.106,72.877 326.148,71.085 C315.399,70.463 304.694,70.142 294.058,70.057 C274.168,69.897 252.85,68.327 230.288,69.028 C224.631,69.204 218.801,69.409 213.214,69.44 C207.682,69.47 202.337,70.101 196.963,69.851 C191.85,69.613 186.178,69.766 180.713,70.057 C175.226,70.349 169.494,70.054 164.256,70.674 C153.725,71.92 142.954,70.73 132.989,71.085 C122.843,71.447 111.069,70.666 100.076,71.291 C94.641,71.601 89.367,72.15 84.031,72.32 C72.981,72.671 62.756,72.129 50.912,72.32 C46.153,72.397 40.595,72.249 36.512,72.526 C31.923,72.837 26.498,73.867 21.29,74.378 C18.639,74.638 15.238,74.239 12.445,74.378 C7.794,74.609 2.657,76.967 1.954,70.881 C1.837,69.871 1.86,68.877 1.748,67.796 C0.935,59.952 1.464,50.996 1.131,42.083 C0.957,37.421 0.621,32.762 0.719,28.3 C0.774,25.806 0.938,23.31 0.925,20.895 C0.912,18.539 0.064,16.341 0.102,14.312 C0.155,11.458 1.831,9.429 3.394,8.346 C4.87,7.321 8.782,8.563 11.007,8.55 C16.664,8.515 22.221,7.287 27.875,7.316 C33.759,7.346 39.634,6.971 45.36,6.699 C50.868,6.437 56.431,6.276 61.817,5.876 C67.442,5.459 72.838,5.624 78.479,5.464 C82.626,5.347 86.866,4.847 91.027,4.847 C103.659,4.847 116.305,5.842 128.877,5.259 C145.801,4.473 162.839,4.374 179.481,4.642 C196.84,4.922 214.25,5.447 231.113,4.642 C247.851,3.843 264.051,3.835 280.483,4.436 C288.993,4.748 297.273,4.999 305.58,4.436 C321.826,3.334 337.66,2.816 353.51,4.23 C361.549,4.947 369.711,5.086 377.783,5.67 C386.296,6.286 394.567,7.271 402.879,7.316 C411.323,7.361 419.747,6.272 428.387,5.876 C436.964,5.483 445.561,5.601 454.1,5.259 C461.948,4.944 469.767,4.25 477.551,3.819 C485.73,3.366 493.999,3.782 502.236,3.407 C518.915,2.649 535.582,3.316 552.429,3.819 C556.467,3.94 560.313,4.265 564.36,4.23 C568.427,4.195 572.577,4.047 576.703,4.024 C593.833,3.932 610.691,5.646 627.924,4.847 C635.875,4.479 643.883,4.029 651.992,3.819 C660.278,3.604 668.583,2.895 676.883,2.585 C693.758,1.954 710.773,2.362 727.693,1.557 C744.627,0.75 761.506,2.104 778.503,1.968 C795.09,1.836 811.658,1.547 828.284,1.351 C832.487,1.302 836.598,1.12 840.832,0.734 C849.15,-0.025 857.791,0.939 866.34,0.734 C870.732,0.629 875.939,0.008 879.711,0.117 C886.753,0.319 893.81,0.099 900.692,0.528 C922.313,1.877 939.826,0.199 961.377,0.528 C967.98,0.629 974.501,1.27 981.124,1.351 C987.751,1.433 994.387,2.468 1001.078,2.585 C1014.618,2.822 1028.345,2.518 1042.011,4.229 Z M1033.989,10.813 C1034.153,13.052 1033.985,15.123 1034.195,17.396 C1034.411,19.736 1033.937,21.748 1033.578,24.184 C1033.262,26.324 1033.722,28.739 1033.578,31.178 C1033.436,33.567 1032.837,35.832 1032.961,37.967 C1033.232,42.63 1033.343,47.052 1033.166,51.544 C1032.989,56.049 1033.611,60.507 1033.166,65.121 C1010.36,63.975 987.153,61.481 963.843,64.709 C958.135,65.5 952.125,64.978 946.153,65.532 C940.101,66.094 934.027,65.911 928.05,65.944 C916.063,66.008 904.038,67.016 892.668,66.561 C869.259,65.625 845.64,67.09 821.905,66.355 C810.439,66 798.78,66.766 787.14,66.766 C767.051,66.766 745.636,66.908 727.074,66.972 C718.315,67.002 710.591,68.215 702.595,68.001 C698.215,67.883 693.767,67.772 689.636,67.589 C683.188,67.304 676.02,68.097 669.271,68.206 C663.897,68.293 658.416,67.588 653.02,67.383 C642.077,66.967 630.933,66.611 619.696,66.766 C608.103,66.926 596.653,65.642 585.136,65.532 C561.357,65.304 538.818,64.451 516.636,64.504 C505.014,64.531 493.326,64.205 481.665,64.298 C477.904,64.328 474.13,64.846 470.352,64.915 C441.886,65.436 415.461,67.499 388.275,67.589 C372.577,67.641 356.914,67.133 341.168,66.561 C325.613,65.996 309.916,64.858 294.267,64.915 C286.527,64.943 278.727,64.252 271.022,64.298 C267.009,64.321 262.995,64.741 259.091,64.298 C254.997,63.833 251.016,63.619 246.954,63.681 C231.209,63.921 215.603,63.455 199.847,64.298 C192.389,64.697 184.835,64.314 177.22,64.709 C161.396,65.53 145.232,65.147 128.056,65.326 C119.91,65.411 111.579,64.569 103.371,64.915 C95.529,65.246 87.754,66.748 79.715,66.972 C71.955,67.188 63.953,67.259 56.059,66.766 C40.019,65.765 24.359,68.467 9.158,67.589 C8.546,66.008 8.634,63.681 8.541,61.212 C8.461,59.086 8.981,56.811 8.953,54.629 C8.894,50.163 9.274,45.63 8.953,41.258 C8.286,32.172 10.036,23.427 9.57,14.722 C14.255,15.054 20.001,14.072 25.82,13.899 C32.248,13.709 38.024,13.783 43.717,13.487 C46.382,13.349 49.14,13.131 51.739,12.87 C57.218,12.32 62.69,12.621 67.99,12.047 C73.309,11.471 78.795,11.515 84.24,11.224 C89.714,10.932 95.256,10.96 100.697,11.018 C122.346,11.252 143.971,10.93 165.701,10.812 C176.859,10.751 188.047,10.393 199.231,10.812 C210.182,11.222 221.147,10.4 232.144,10.4 C248.686,10.4 265.163,9.379 281.719,9.989 C287.345,10.196 292.971,10.963 298.587,11.017 C310.691,11.134 322.618,8.929 334.586,9.165 C346.739,9.405 358.899,10.154 371.202,11.017 C383.528,11.881 395.764,12.965 407.818,13.074 C419.344,13.178 430.7,11.163 442.377,11.222 C454.617,11.285 466.884,10.274 479.199,9.782 C491.266,9.3 503.397,9.542 515.404,9.165 C527.66,8.781 539.96,9.174 552.225,9.577 C564.062,9.966 575.841,9.861 587.607,10.194 C611.408,10.867 635.579,10.436 659.81,9.371 C672.018,8.834 684.211,7.996 696.426,7.931 C720.119,7.804 743.458,6.558 767.395,7.519 C779.381,8 791.423,7.977 803.599,7.725 C815.628,7.476 827.964,8.128 840.215,7.108 C852.713,6.067 865.301,7.786 877.448,6.697 C883.391,6.164 891.401,6.655 898.018,6.903 C917.9,7.648 936.822,7.212 956.028,7.109 C968.864,7.04 981.543,8.068 994.29,8.755 C1007.324,9.458 1020.474,9.067 1033.783,10.401 C1033.823,10.568 1033.99,10.606 1033.989,10.813 Z" id="bg7" fill="#000000"></path>
                <g id="jira-drawn-vector" transform="translate(458.000000, 15.000000)" fill="#000000">
                    <path d="M16.8149696,1.58252113 C17.6755081,5.73111268 10.7324818,5.24700939 11.4040385,1.78439906 C11.7783947,-0.14656338 15.9123462,-0.422934272 16.8149696,1.58252113 L16.8149696,1.58252113 Z" id="Shape"></path>
                    <path d="M17.0153745,5.62007981 C16.7566518,4.41729108 17.5270081,4.25134742 17.6165891,3.39942254 C19.3058016,2.39871362 23.118504,3.19330516 22.6267105,5.62007981 C22.2230951,7.61241315 17.9280182,7.45393897 17.0153745,5.62007981 L17.0153745,5.62007981 Z" id="Shape"></path>
                    <path d="M10.0012045,5.21632394 C9.52303846,6.91916432 7.49614372,7.75029577 5.79270243,6.62946948 C4.44578138,3.30938498 9.57514372,2.2735493 10.0012045,5.21632394 L10.0012045,5.21632394 Z" id="Shape"></path>
                    <path d="M76.1348077,26.8172629 C79.8016154,22.7631502 80.8110547,16.629493 82.6146984,11.6091925 C83.1491781,10.1960469 83.3403644,10.40923 83.5497874,9.6576385 C86.7506538,8.59757746 90.1036275,8.23944601 92.9688158,9.45576056 C93.5547996,19.5377465 98.5687287,25.4075493 98.9809615,33.6811127 C92.5012713,34.0868873 92.0337267,34.5558498 91.7663866,29.4416761 C91.6996518,27.2210188 84.9351862,30.668892 83.9505972,27.2210188 C83.8734413,23.6312254 84.0818623,22.7433662 86.7562652,23.1261268 C87.2612854,23.5064648 89.3414879,23.0211502 90.1631478,23.1834601 C90.5226741,23.2090986 90.5858016,22.9361596 90.9647672,22.9815822 C90.4851984,20.0327512 89.7130385,17.378662 87.9586943,15.7139765 C82.6467632,17.8542864 83.2557935,34.2901784 76.7360223,34.0848685 C70.4024271,33.885615 70.1950081,22.7239859 62.908087,26.413507 C62.865,29.4870986 62.8118927,31.3459906 62.5072773,33.8829906 C60.7266802,33.9742394 60.0390911,33.884 58.0983704,34.0848685 C58.171919,33.7414742 57.3711012,34.0868873 57.6975607,33.6811127 C57.5775182,33.1564319 57.2342247,33.3445822 57.4304211,32.2679671 C57.5638907,23.7218685 58.8795486,18.7681878 58.0983704,10.2632723 C58.0316356,8.55740376 58.4324453,8.55740376 59.3007996,8.64824883 C62.6952571,7.99073239 65.4832895,8.87899531 68.5194231,8.44637089 C77.5059777,7.84376526 80.1607409,19.8625681 73.5295445,23.9909718 C74.0507976,25.2827887 74.768247,26.3769671 76.1348077,26.8172629 Z M71.1246862,13.6951972 C72.9331397,19.6407042 67.3047692,21.3225493 62.908087,19.7515352 C63.193664,17.0120516 62.7647976,16.0069014 63.3088968,13.6951972 C65.8382065,12.3506901 68.6244352,13.1319577 71.1246862,13.6951972 Z" id="Shape"></path>
                    <path d="M55.4931073,10.0613944 C55.3011194,19.3393005 55.4081356,26.7359061 55.893917,34.2867465 C54.7221498,35.5624131 52.2427409,34.7619671 50.4829858,35.0942582 C47.8985648,28.8685446 50.6346923,18.6924836 49.4809615,9.25388263 C50.9158603,8.0309061 54.5770567,8.49199531 55.4931073,10.0613944 L55.4931073,10.0613944 Z" id="Shape"></path>
                    <path d="M14.6105162,19.9534131 C20.8324858,17.7365915 20.639496,8.18978404 28.6388563,9.25388263 C27.8366356,15.4093427 23.9551943,20.1237981 19.2198279,22.9815822 C21.5653664,26.1369343 22.6487551,30.5635117 24.831164,33.8829906 C25.691502,37.4279671 19.6571113,37.9863615 17.2157794,36.7092817 C17.118583,36.2500094 16.888919,36.5074038 16.8181761,35.6780892 C16.7139656,35.1774319 16.4808947,35.0942582 16.4141599,34.2867465 C17.6777126,21.3449577 -2.82109919,23.0467887 0.582176113,9.25388263 C3.68183806,7.90130047 6.43339676,10.9209906 5.79270243,13.2914413 C8.21379352,16.0341549 10.8885972,18.5212911 14.6105162,19.9534131 L14.6105162,19.9534131 Z" id="Shape"></path>
                    <path d="M45.6732692,10.6670282 C45.1638401,21.7701127 49.9414919,38.2433521 37.0558603,42.9674977 C34.1878664,42.2901972 32.7840304,40.1375728 32.2461437,37.1130376 C44.1497915,35.4903427 36.7109636,18.6597793 39.6611235,9.6576385 C42.116083,9.93158685 43.8904676,8.75564789 45.6732692,10.6670282 L45.6732692,10.6670282 Z" id="Shape"></path>
                    <path d="M17.6165891,11.4745399 C17.4608745,14.5477277 15.1129312,15.4125728 13.8088968,17.329 C10.8713623,16.5870986 9.40239474,14.3658357 8.7987753,11.272662 C11.2467206,10.3803615 15.113332,10.0739108 17.6165891,11.4745399 L17.6165891,11.4745399 Z" id="Shape"></path>
                    <path d="M11.2036336,26.2116291 C9.76152024,28.8251408 8.80879555,32.4496573 9.19958502,36.3055258 C7.53602429,37.6726432 3.46159312,37.084169 1.5842004,36.3055258 C-0.855327935,30.7972864 5.55402024,20.6198122 11.2036336,26.2116291 L11.2036336,26.2116291 Z" id="Shape"></path>
                </g>
            </g>
            <g id="kd-resource--to--jira" transform="translate(736.000000, 86.000000)">
                <path d="M183.821,13.472 C183.741,14.214 183.555,14.851 183.41,15.529 C179.106,16.36 177.242,13.09 174.565,11.62 C172.37,12.521 173.336,15.518 173.331,17.997 C173.306,27.786 172.077,37.239 173.331,46.796 C176.86,45.252 178.836,42.153 182.382,40.625 C184.343,41.407 186.4,42.093 186.29,44.945 C181.404,48.424 176.833,52.218 172.714,56.465 C169.968,57.673 167.147,56.786 165.72,55.025 C164.697,53.156 163.2,50.051 160.989,48.031 C159.894,47.031 157.438,46.448 158.109,43.711 C158.173,43.446 158.934,42.998 158.931,42.477 C163.238,42.491 163.403,46.645 166.748,47.62 C166.928,36.319 168.003,24.41 167.159,12.65 C164.772,12.917 163.887,17.011 161.605,17.587 C159.743,18.057 157.365,16.77 157.08,15.53 C156.58,13.362 163.747,7.839 165.514,5.45 C166.634,3.936 167.067,1.444 169.217,1.336 C171.949,1.198 172.273,4.4 174.154,6.067 C177.406,8.505 181.073,10.529 183.821,13.472 L183.821,13.472 Z" id="Shape" fill="#1E9FCC"></path>
                <path d="M27.073,13.884 C23.14,15.367 20.2,12.614 17.61,11.415 C16.463,14.032 16.564,17.166 16.582,20.055 C16.633,28.485 17.858,37.199 17.61,46.386 C20.4,45.708 21.048,40.99 25.015,41.449 C26.41,41.611 27.794,42.714 27.895,44.123 C28.073,46.616 24.187,49.067 22.546,50.5 C20.189,52.56 18.812,54.698 16.992,56.671 C11.804,58.885 9.58,53.229 6.912,50.294 C6.07,49.367 4.139,48.261 3.416,47.208 C3.152,46.825 3.187,46.096 3.004,45.768 C2.546,44.948 1.623,44.81 1.565,43.917 C5.56,40.945 8.236,46.739 11.027,48.237 C12.356,44.444 11.694,40.339 11.644,36.511 C11.544,28.844 10.527,21.099 11.233,12.444 C8.872,12.2 8.114,17.254 5.678,17.792 C3.752,18.218 1.848,16.771 0.741,15.324 C3.414,9.775 10.065,7.316 11.438,1.13 C13.119,0.291 13.6,-0.25 15.552,0.718 C15.928,2.125 17.261,2.574 17.403,4.215 C18.853,6.13 23.635,7.719 25.632,9.769 C26.541,10.703 28.055,12.554 27.073,13.884 L27.073,13.884 Z" id="Shape" fill="#1E9FCC"></path>
                <text id="label-kdrtj1" fill="#000000" font-family="Patrick Hand" font-size="30" font-weight="normal">
                    <tspan x="34.095" y="42.0034731">CRUD</tspan>
                </text>
                <text id="label-kdrtj2" fill="#000000" font-family="Patrick Hand" font-size="30" font-weight="normal">
                    <tspan x="192.39" y="42.0034731">AUTH</tspan>
                </text>
            </g>
            <g id="ktp-webwork-action--to--jira" transform="translate(157.000000, 88.000000)">
                <path d="M16.31,8.798 C15.28,11.847 15.441,15.288 15.487,18.672 C15.621,28.548 15.016,38.391 15.487,48.705 C17.414,48.219 18.456,44.979 21.041,45.002 C22.412,45.014 24.011,46.128 24.126,47.265 C24.336,49.334 20.804,51.039 19.601,52.408 C17.698,54.572 16.518,56.759 15.281,58.579 C13.525,59.896 10.64,58.91 9.521,57.756 C8.812,55.659 7.397,54.626 5.612,53.025 C4.462,51.993 1.556,49.817 1.704,48.5 C1.93,46.484 5.171,47.044 6.641,47.883 C8.42,48.898 8.771,50.904 10.755,51.175 C11.58,41.949 10.549,33.05 10.549,23.198 C10.549,17.992 11.42,12.682 10.137,7.77 C7.364,8.155 6.09,12.295 2.938,12.295 C1.752,12.295 0.396,11.377 0.469,10.444 C0.548,9.433 2.86,8.569 3.554,7.975 C6.045,5.846 9.22,3.441 11.165,0.981 C14.353,0.229 15.825,1.492 17.542,3.244 C19.939,5.69 23.606,7.924 23.919,11.678 C21.442,16.003 18.104,10.264 16.31,8.798 L16.31,8.798 Z" id="Shape" fill="#1E9FCC"></path>
                <text id="label-ktpwatj" fill="#000000" font-family="Patrick Hand" font-size="30" font-weight="normal">
                    <tspan x="30.89" y="37.0034731">AUTH</tspan>
                </text>
            </g>
            <g id="user-resource--to--jira" transform="translate(386.000000, 85.000000)">
                <path d="M28.81,13.855 C25.01,18.147 21.658,11.208 17.29,10.975 C16.989,26.148 16.083,39.215 17.701,53.557 C19.883,52.858 19.952,50.048 22.844,50.06 C25.324,45.494 32.304,51.379 26.136,52.94 C23.899,55.989 20.673,59.311 18.114,62.814 C16.955,64.4 16.17,66.156 14,65.488 C11.459,64.706 10.611,61.695 8.857,59.317 C7.112,56.952 4.222,56.168 3.097,54.174 C3.216,52.547 2.407,51.847 2.068,50.677 C6.109,48.498 9.012,52.345 11.736,53.968 C12.073,49.929 11.601,46.097 11.324,42.243 C10.586,31.951 11.907,22.552 11.324,12.415 C8.464,14.125 5.893,18.168 1.244,16.735 C0.211,14.887 2.375,14.653 2.478,12.827 C5.606,11.775 8.58,6.025 11.735,4.393 C14.202,3.116 15.992,5.482 17.495,7.067 C21.342,8.226 24.198,10.376 27.78,11.798 C28.016,12.592 28.668,12.969 28.81,13.855 L28.81,13.855 Z" id="Shape" fill="#1E9FCC"></path>
                <text id="lavel-urtj1" fill="#000000" font-family="Patrick Hand" font-size="30" font-weight="normal">
                    <tspan x="35.615" y="43.0034731">READ</tspan>
                </text>
                <text id="label-urtj2" fill="#000000" font-family="Patrick Hand" font-size="30" font-weight="normal">
                    <tspan x="183.89" y="43.0034731">AUTH</tspan>
                </text>
                <path d="M178.359,8.507 C178.173,9.483 178.421,11.049 176.507,10.77 C176.311,11.533 176.117,12.299 175.685,12.827 C171.137,13.835 169.8,9.967 166.634,8.918 C165.694,11.552 166.639,14.639 166.634,17.352 C166.614,27.167 165.585,37.395 165.811,49.031 C165.56,49.671 165.332,50.335 165.4,51.294 C166.85,50.628 167.637,48.26 169.308,46.974 C169.768,46.62 170.299,46.816 170.747,46.562 C172.701,45.457 174.397,43.428 176.096,46.356 C174.98,50.245 172.079,52.351 169.925,55.201 C169.757,58.039 167.718,59.909 167.456,61.99 C166.742,62.167 166.314,62.631 165.81,63.018 C164.026,62.883 162.601,62.388 161.902,61.167 L160.05,61.167 C159.502,60.706 160.341,60.136 159.844,59.727 C156.223,54.943 152.253,53.678 150.176,47.59 C154.538,45.673 156.829,50.495 159.227,52.527 C160.191,41.256 161.057,25.522 160.461,12.003 C158.48,13.312 153.077,17.146 152.027,11.797 C155.678,8.043 160.204,5.163 162.518,0.072 C163.18,0.406 163.632,0.17 164.369,0.072 C165.597,1.587 168.499,1.428 169.1,3.569 C172.542,4.862 175.684,6.45 178.359,8.507 L178.359,8.507 Z" id="Shape" fill="#1E9FCC"></path>
            </g>
            <g id="kitchen-duty-resource" transform="translate(724.000000, 157.000000)">
                <rect id="fill3" fill="#FFFFFF" x="5" y="5" width="307" height="76"></rect>
                <path d="M317.6,7.064 C317.943,8.687 315.996,9.637 315.748,10.972 C315.445,12.608 316.115,15.37 316.159,17.761 C316.275,24.033 316.208,31.427 316.159,38.126 C316.11,44.892 315.392,51.292 315.954,58.285 C316.428,64.195 315.692,69.888 315.748,76.388 C315.772,79.237 314.717,82.984 316.571,85.439 C316.769,90.113 311.404,88.445 307.108,88.113 C297.782,87.394 286.695,86.244 278.514,86.056 C263.658,85.714 250.814,85.624 237.99,85.028 C210.957,83.771 185.448,81.294 158.382,81.943 C138.667,82.415 119.65,83.589 99.55,83.589 C92.765,83.589 85.833,83.289 79.185,83.795 C73.181,84.252 67.218,84.747 61.082,85.029 C54.712,85.322 48.274,85.647 41.746,85.852 C28.733,86.26 15.754,88.017 3.279,87.292 C2.775,86.767 2.598,85.915 1.839,85.646 C1.326,83.489 2.357,82.463 2.456,80.297 C2.523,78.829 1.885,77.344 1.633,75.772 C0.836,70.777 0.743,65.682 0.811,60.344 C0.895,53.642 0.535,47.27 1.016,40.596 C1.991,27.097 1.493,13.95 1.633,2.951 C23.419,2.066 45.545,4.084 68.076,3.157 C79.519,2.686 91.223,2.545 102.841,1.923 C114.492,1.299 126.073,0.756 137.606,1.1 C154.607,1.607 171.098,0.283 189.65,0.894 C211.991,1.63 233.445,2.021 257.122,0.894 C263.04,0.612 270.056,0.726 275.018,0.071 C277.346,-0.236 280.616,0.72 283.864,0.894 C286.88,1.056 289.69,1.306 292.504,1.511 C300.66,2.105 309.207,1.536 314.721,4.185 C316.289,4.938 316.397,6.238 317.6,7.064 Z M308.343,9.738 C309.183,13.837 308.88,17.118 308.754,22.492 C308.699,24.82 309.331,27.057 309.371,29.281 C309.498,36.297 308.416,43.292 308.343,50.263 C308.306,53.719 308.69,57.137 308.96,60.549 C309.239,64.086 308.236,67.59 309.165,71.04 C308.263,73.492 309.51,78.498 308.137,81.326 C295.612,80.934 282.972,79.776 270.081,79.68 C244.702,79.492 219.17,77.852 193.558,76.595 C187.346,76.29 181.075,76.031 175.044,75.772 C158.438,75.059 137.477,76.785 119.298,77.006 C94.613,77.306 68.67,78.343 44.215,79.063 C32.314,79.414 20.559,80.852 9.039,80.915 C8.618,74.7 7.88,70.515 7.187,63.636 C7.921,55.185 6.902,45.758 7.804,35.454 C8.68,25.447 7.935,17.403 8.421,8.918 C36.415,9.169 66.411,9.811 98.109,8.301 C103.111,8.063 108.094,7.674 113.127,7.478 C118.405,7.273 124.15,7.304 129.172,7.067 C137.084,6.693 144.832,7.664 152.416,7.273 C159.577,6.904 166.66,7.479 173.811,7.479 C188.368,7.479 203.47,6.955 217.215,7.891 C225.027,8.423 232.586,8.302 240.254,8.302 C247.984,8.302 255.596,7.274 263.293,7.274 C278.442,7.27 293.332,7.398 308.343,9.738 Z" id="bg3" fill="#000000"></path>
                <text id="label-kdr" fill="#000000" font-family="Patrick Hand" font-size="28" font-weight="normal">
                    <tspan x="61.064" y="34">Kitchen Duty REST</tspan>
                    <tspan x="109.546" y="72">Resource</tspan>
                </text>
            </g>
            <g id="user-resource" transform="translate(362.000000, 159.000000)">
                <rect id="fill2" fill="#FFFFFF" transform="translate(165.500000, 45.000000) rotate(-1.000000) translate(-165.500000, -45.000000) " x="7" y="5" width="317" height="80"></rect>
                <path d="M327.84,5.27 C325.602,13.932 327.996,28.823 326.194,36.332 C326.668,39.513 326.512,43.87 326.605,48.469 C326.693,52.829 327.207,57.235 327.017,61.017 C326.931,62.729 326.301,64.804 326.4,66.777 C326.534,69.47 327.177,73.869 327.428,76.034 C327.562,77.187 327.282,79.093 327.428,80.765 C327.611,82.859 328.299,83.98 327.017,84.879 C326.194,85.455 319.76,85.191 316.526,85.29 C308.035,85.55 296.17,85.448 287.315,86.113 C273.247,87.17 258.461,86.371 245.557,86.73 C231.114,87.132 216.036,86.472 204.003,86.936 C177.246,87.968 149.536,86.542 122.132,87.553 C115.695,87.791 108.479,87.759 101.356,87.759 C94.231,87.759 87.275,88.606 80.785,88.582 C64.856,88.521 46.413,90.344 30.798,89.199 C24.949,88.77 19.208,89.022 11.667,88.993 C8.511,88.981 4.214,89.184 2.822,87.965 C1.46,86.772 1.157,82.806 0.97,78.914 C0.181,62.473 0.91,46.278 0.558,28.927 C0.492,25.659 0.23,21.949 0.352,18.436 C0.459,15.361 0.186,11.075 0.969,8.768 C1.451,7.347 2.807,6.485 3.438,5.065 C15.627,5.578 25.555,4.175 38.614,3.625 C46.999,3.271 55.428,3.14 63.916,2.802 C72.836,2.447 81.947,2.343 91.07,2.596 C100.009,2.845 108.982,1.716 117.812,1.979 C126.552,2.24 135.135,1.721 143.731,1.156 C163.732,-0.157 189.594,1.313 208.734,0.539 C228.477,-0.259 252.951,1.692 272.504,1.156 C289.089,0.701 306.991,-0.076 324.137,1.156 C325.394,2.505 326.195,4.311 327.84,5.27 Z M320.024,7.327 C320.179,13.2 320.336,18.917 320.435,24.812 C320.537,30.798 319.649,37.062 320.024,43.12 C320.374,48.766 320.414,54.72 320.229,60.399 C320.04,66.261 319.435,72.343 320.846,78.502 C300.876,78.945 281.734,80.315 262.425,79.942 C256.063,79.819 249.81,80.552 243.5,80.559 C219.371,80.586 194.346,80.764 168.828,81.588 C140.35,80.991 114.068,80.944 86.134,82.411 C85.266,82.456 83.893,82.181 83.666,82.205 C82.868,82.291 82.243,82.789 81.403,82.822 C78.734,82.925 75.637,82.458 72.146,82.616 C51.609,83.545 30.872,83.599 7.965,82.822 C7.163,77.355 8.008,71.179 7.965,65.131 C7.952,63.308 7.252,61.422 7.142,59.577 C7.061,58.228 7.524,56.823 7.553,55.463 C7.611,52.805 6.886,49.116 6.936,44.766 C7.061,33.938 6.577,22.004 7.348,11.236 C9.554,11.569 12.396,11.224 14.342,11.853 C27.407,10.285 40.801,9.278 54.044,9.385 C66.711,9.487 79.295,8.289 91.894,8.562 C111.691,8.99 132.743,8.283 150.109,7.328 C168.638,6.309 188.755,7.727 208.53,7.122 C220.924,6.743 233.19,6.781 245.145,7.122 C257.876,7.485 270.285,7.934 282.583,7.328 C285.578,7.181 288.597,7.169 291.635,7.328 C300.627,7.796 310.387,6.276 320.024,7.327 Z" id="bg2" fill="#000000"></path>
                <text id="label-ur" fill="#000000" font-family="Patrick Hand" font-size="30" font-weight="normal">
                    <tspan x="102.935" y="36">User REST</tspan>
                    <tspan x="111.335" y="76">Resource</tspan>
                </text>
            </g>
            <g id="kd-js-controller--to--kitchen-duty-resource" transform="translate(349.000000, 266.000000)">
                <path d="M547.165,0.095 C548.266,0.229 549.904,-0.175 550.662,0.301 C553.66,4.447 557.516,7.882 561.976,11.203 C563.435,12.289 565.738,13.909 564.239,16.346 C562.155,17.719 560.371,15.296 558.273,15.318 C557.52,13.26 556.381,11.587 554.159,10.998 C553.354,13.655 553.706,16.504 553.542,19.226 C553.051,27.421 554.118,35.215 553.954,43.088 C553.841,48.52 554.795,53.949 554.776,59.545 C554.718,77.589 554.101,94.613 553.542,112.001 C552.53,143.455 551.153,178.314 552.514,213.209 C552.951,224.41 552.447,235.983 552.308,247.356 C552.24,253.037 552.456,258.894 552.308,264.635 C552.161,270.374 551.534,276.346 552.103,281.708 C552.406,284.561 553.322,287.31 553.542,290.143 C554.011,296.145 552.845,303.089 552.925,309.479 C552.946,311.108 553.595,312.875 553.542,314.417 C553.479,316.286 552.575,317.478 552.514,319.56 C550.233,320.494 547.629,320.017 545.109,320.382 C543.218,320.656 541.454,321.178 539.554,321.411 C537.543,321.657 535.472,321.655 533.383,321.822 C531.392,321.981 529.493,322.922 527.623,323.056 C525.232,323.227 522.408,322.631 519.807,322.644 C511.423,322.686 503.349,322.547 495.121,322.233 C483.898,321.805 472.198,322.441 460.768,322.233 C449.602,322.03 438.771,322.197 428.06,321.616 C417.223,321.029 406.647,321.515 396.176,321.205 C374.113,320.55 352.18,318.022 330.144,318.325 C319.904,318.466 309.25,318.927 298.67,319.353 C293.229,319.573 287.798,320.007 282.419,319.97 C261.009,319.822 240.896,323.239 218.856,321.616 C213.508,321.222 207.962,322.003 202.4,321.822 C182.275,321.167 158.362,319.915 137.808,319.559 C132.001,319.458 126.131,319.765 120.323,319.764 C101.987,319.764 85.57,319.094 69.102,318.942 C63.484,318.889 57.713,318.649 52.029,318.736 C46.563,318.82 41.472,318.415 36.395,318.531 C33.546,318.595 30.861,318.95 27.961,318.736 C22.485,318.334 16.536,318.491 11.093,318.736 C7.903,318.88 5.077,319.663 3.276,318.942 C2.169,318.499 -0.006,316.423 1.013,314.417 C1.988,312.496 13.874,312.781 17.675,312.771 C33.403,312.727 51.622,313.183 68.485,313.183 C88.33,313.183 102.952,313.781 119.089,313.8 C124.535,313.806 130.109,313.309 135.957,313.594 C147.893,314.176 159.54,314.284 171.133,315.034 C181.909,315.73 194.742,315.805 205.486,315.651 C216.856,315.488 227.63,315.997 238.399,315.651 C249.255,315.301 260.037,314.723 271.107,314.211 C282.515,313.684 293.838,313.574 305.254,312.977 C316.501,312.388 327.289,312.36 338.372,312.36 C360.257,312.36 382.798,315.353 408.107,315.446 C430.535,315.528 454.458,315.952 477.636,316.269 C488.919,316.422 501.282,316.68 513.429,316.68 C525.773,316.679 535.95,315.634 546.753,314.005 C546.131,308.69 547.48,303.099 547.37,297.549 C547.299,293.958 545.878,291.241 545.724,288.086 C545.433,282.1 545.857,275.892 546.135,269.983 C546.424,263.861 546.298,257.774 545.929,251.675 C545.23,240.09 546.728,228.626 546.341,217.528 C545.175,184.103 546.413,148.839 547.369,113.852 C547.848,96.35 548.503,79.578 548.397,61.808 C548.363,55.974 547.64,50.173 547.369,44.323 C546.835,32.813 547.445,21.146 546.958,9.969 C543.193,10.047 542.786,17.793 538.523,17.992 C537.263,18.051 535.903,17.794 535.438,16.758 C534.998,15.777 535.642,15.566 536.26,14.495 C538.953,9.832 543.02,4.883 546.545,0.712 C546.663,0.416 546.869,0.21 547.165,0.095 L547.165,0.095 Z" id="Shape" fill="#1E9FCC"></path>
                <text id="label-kdjctkdr" fill="#000000" font-family="Patrick Hand" font-size="30" font-weight="normal">
                    <tspan x="272.65" y="304">GET, POST, PUT, DELETE</tspan>
                </text>
            </g>
            <g id="ur-js-controller--to--user-resource" transform="translate(351.000000, 275.000000)">
                <path d="M192.583,12.694 C191.821,22.094 191.709,30.52 191.761,39.025 C191.806,46.435 192.365,54.616 192.378,63.093 C192.386,68.544 191.382,74.032 191.761,79.138 C191.81,79.807 192.339,80.545 192.378,81.195 C192.434,82.139 192.013,83.613 191.966,84.692 C191.701,90.852 192.153,99.126 191.966,105.469 C191.899,107.773 191.639,109.532 192.172,111.229 C191.61,114.551 191.833,118.707 191.761,121.308 C191.72,122.778 192.299,124.284 192.378,125.833 C192.48,127.83 191.552,129.788 191.761,131.593 C191.962,133.339 192.871,134.79 192.583,136.324 C191.73,137.254 191.148,138.455 190.32,139.41 C188.688,139.707 185.5,140.257 185.383,137.558 C174.805,136.891 161.479,137.386 148.767,138.175 C141.503,138.626 133.871,139.011 126.551,138.792 C122.305,138.665 117.852,138.037 113.385,137.969 C108.807,137.9 104.326,137.811 99.808,137.764 C85.483,137.614 71.609,137.017 57.638,138.381 C56.382,138.503 55.155,138.979 53.935,138.997 C51.136,139.041 48.277,138.536 45.501,138.586 C42.438,138.642 39.453,139.181 36.45,139.203 C33.252,139.227 30.16,138.662 26.988,138.792 C24.364,138.899 21.672,139.541 18.966,139.614 C17.03,139.667 14.973,138.945 13.001,138.997 C12.132,139.02 11.531,139.518 10.738,139.614 C7.556,139.999 4.505,139.47 1.07,139.409 C0.913,138.182 1.063,137.282 0.041,137.763 C0.54,135.328 3.363,135.221 5.595,134.677 C7.946,134.105 10.569,133.461 13.001,133.443 C27.943,133.329 42.904,133.348 58.256,132.415 C73.392,131.494 88.726,131.228 104.129,131.798 C113.285,132.136 122.555,132.679 131.488,132.415 C150.48,131.853 168.955,130.731 185.384,130.357 C184.991,127.37 185.903,123.733 184.767,120.483 C185.603,105.348 184.412,87.815 185.384,70.497 C185.596,66.722 184.882,63.238 184.767,59.595 C184.662,56.293 184.931,52.984 184.767,49.721 C184.211,38.687 184.666,25.933 185.178,13.105 C184.595,12.928 184.033,13.903 183.532,14.545 C183.059,15.151 182.367,15.738 181.886,16.396 C180.865,17.792 180.983,19.199 179.623,19.688 C178.105,20.233 176.72,19.133 175.714,17.425 C176.268,15.509 177.155,13.928 178.594,12.899 C179.707,11.75 180.076,9.856 181.68,9.196 C183.053,5.906 185.272,3.462 186.823,0.351 C186.829,0.551 187.075,0.511 187.234,0.557 C189.01,-0.944 190.311,1.869 191.76,1.38 C193.566,4.003 196.436,6.592 198.754,9.197 C199.413,9.938 199.806,10.589 200.4,11.254 C201.758,12.776 206.895,15.021 204.102,17.631 C203.34,18.343 201.004,18.636 199.577,18.454 C197.557,18.196 196.454,16.324 195.052,16.191 C194.556,14.698 193.275,13.99 192.583,12.694 L192.583,12.694 Z" id="Shape" fill="#1E9FCC"></path>
                <text id="label-urctur" fill="#000000" font-family="Patrick Hand" font-size="30" font-weight="normal">
                    <tspan x="128.65" y="119">GET</tspan>
                </text>
            </g>
            <g id="html-view" transform="translate(1.000000, 337.000000)">
                <rect id="fill4" fill="#FFFFFF" x="8" y="6" width="137" height="303"></rect>
                <path d="M1.367,315.824 C0.118,306.808 1.66,298.511 1.161,288.877 C0.882,283.494 1.044,278.597 1.367,273.037 C2.005,262.032 3.434,250.524 3.63,240.124 C3.7,236.397 4.484,232.533 4.247,228.811 C4.183,227.806 3.539,226.726 3.424,225.52 C3.013,221.2 3.146,216.588 2.807,211.943 C2.482,207.488 2.734,202.89 2.807,198.367 C2.954,189.163 3.116,179.682 3.63,170.39 C3.896,165.573 3.321,160.803 3.424,156.196 C3.722,142.949 3.802,129.825 4.658,115.878 C4.928,111.487 5.598,106.862 5.687,102.096 C5.949,87.986 5.46,73.056 5.687,59.309 C5.746,55.716 5.555,51.381 5.275,46.555 C5.006,41.922 5.506,36.862 5.275,32.156 C5.067,27.931 4.364,23.182 3.835,18.374 C3.654,16.729 3.727,14.287 3.629,11.791 C3.52,8.998 2.859,6.64 3.423,5.209 C4.797,1.726 13.719,2.123 19.057,2.123 C38.017,2.122 56.234,2.401 71.718,0.684 C77.054,0.091 84.778,0.762 91.877,0.478 C109.097,-0.211 121.833,3.5 138.573,2.741 C141.822,2.594 145.387,2.249 147.83,2.947 C148.696,3.194 152.373,5.187 152.767,6.238 C153.315,7.701 152.033,11.514 151.738,14.878 C150.918,24.243 150.441,32.648 150.298,40.591 C150.246,43.47 150.386,46.362 150.298,49.232 C150.209,52.141 149.5,55.056 149.475,57.872 C149.423,63.863 149.504,70.522 149.269,76.591 C148.824,88.112 149.508,100.137 149.475,111.767 C149.442,123.365 149.698,136.322 149.269,147.355 C149.048,153.046 148.104,158.763 147.829,164.634 C147.695,167.5 147.995,170.533 148.035,173.48 C148.15,181.977 147.304,191.48 147.624,200.633 C147.827,206.433 147.668,212.167 147.83,217.706 C148.161,229.104 146.98,241.221 147.418,252.677 C147.991,267.651 146.844,281.944 148.241,296.081 C148.719,300.917 148.668,305.139 149.064,310.274 C149.281,313.082 149.188,315.272 147.624,316.24 C145.969,317.263 143.052,316.187 140.63,316.034 C137.689,315.847 135.124,315.829 132.196,315.211 C114.251,311.428 90.877,314.899 69.867,313.978 C57.749,313.446 45.931,313.899 34.485,314.8 C28.859,315.243 23.097,314.962 17.617,315.623 C12.125,316.281 6.479,316.981 1.367,315.824 Z M145.362,9.526 C144.727,27.726 143.818,46.075 143.099,64.039 C142.316,83.625 143.321,102.229 142.893,122.666 C142.739,130.004 143.502,137.598 143.099,145.293 C142.689,153.117 141.576,161.077 141.659,168.949 C141.745,177.044 141.18,185.013 141.042,193.017 C140.912,200.595 141.416,208.192 141.454,215.645 C141.571,238.606 140.184,262.211 141.042,285.997 C141.315,293.567 142.07,301.127 141.865,308.625 C137.436,309.273 133.137,308.126 128.906,307.391 C116.636,305.259 102.978,306.774 89.822,306.774 C83.011,306.774 76.145,306.778 69.251,306.363 C62.536,305.959 55.857,306.084 49.091,306.157 C35.685,306.303 22.096,308.249 9.39,307.803 C9.241,297.561 9.484,287.876 9.184,277.77 C8.973,270.653 9.699,262.491 10.418,254.32 C10.909,248.744 10.387,242.894 11.858,237.041 C10.687,232.939 12.564,228.421 12.27,224.287 C12.182,223.046 11.294,222.056 11.036,220.79 C10.663,218.966 10.787,216.559 10.624,214.413 C10.465,212.318 10.457,210.323 10.418,208.242 C10.263,199.969 10.726,191.542 10.83,182.939 C10.871,179.541 10.692,176.527 10.83,173.271 C11.074,167.503 10.814,161.118 11.036,154.963 C11.101,153.15 10.836,149.271 10.83,147.558 C10.829,147.085 11.255,146.585 11.241,146.118 C11.11,141.519 11.372,135.704 11.447,130.484 C11.492,127.346 11.539,123.928 11.653,121.227 C11.669,120.857 12.076,120.328 12.065,119.993 C11.809,112.941 13.518,104.263 13.093,96.748 C12.218,81.27 12.963,66.472 12.476,50.053 C12.321,44.821 12.076,40.032 12.27,34.213 C12.309,33.04 12.726,31.703 12.681,30.511 C12.64,29.421 12.008,28.449 11.858,27.425 C11.375,24.12 11.587,20.638 11.241,17.346 C11.073,15.743 10.329,14.253 10.213,12.615 C10.148,11.696 10.613,10.643 10.213,9.735 C20.048,8.027 30.263,8.877 40.452,8.501 C48.139,8.218 55.931,8.253 63.492,7.884 C66.006,7.762 68.453,7.325 70.897,7.267 C78.717,7.079 86.892,7.208 94.348,6.856 C103.473,6.424 111.628,7.574 119.65,8.502 C127.686,9.428 136.614,8.983 145.362,9.526 Z" id="bg4" fill="#000000"></path>
                <text id="label-hv" fill="#000000" font-family="Patrick Hand" font-size="36" font-weight="normal">
                    <tspan x="42" y="142">HTML</tspan>
                    <tspan x="42" y="191">VIEW</tspan>
                </text>
            </g>
            <g id="user-js-controller" transform="translate(185.000000, 337.000000)">
                <rect id="fill5" fill="#FFFFFF" x="7" y="3" width="136" height="132"></rect>
                <path d="M150.613,6.441 C149.988,7.325 149.198,8.043 148.144,8.498 C148.224,10.688 147.11,13.299 147.938,15.286 C146.836,18.248 147.045,22.677 147.115,26.806 C147.119,27.049 146.883,27.804 146.909,28.04 C146.97,28.578 147.526,28.72 147.526,29.068 C147.528,31.107 147.142,33.156 147.115,35.24 C147.004,43.684 147.115,55.57 147.115,66.302 C147.115,72.229 146.92,79.594 146.909,86.667 C146.897,94.485 148.041,100.648 146.909,107.648 C148.13,112.948 147.912,119.15 147.32,125.339 C146.986,128.833 146.58,132.84 147.114,135.83 C147.276,136.735 147.375,138.195 148.966,138.093 C147.075,138.808 146.201,140.54 143.823,140.767 C138.231,139.214 130.131,139.91 123.252,139.945 C119.399,139.965 115.613,139.383 111.732,139.533 C77.371,140.856 40.545,139.73 3.941,140.767 C3.35,140.467 3.415,139.511 2.501,139.533 C-0.835,114.333 1.763,90.946 1.473,66.713 C1.304,52.589 1.915,36.975 3.736,22.486 C4.09,19.664 4.59,16.712 4.764,13.64 C4.993,9.629 4.877,5.715 6.204,2.738 C7.478,1.895 8.539,1.037 10.318,1.092 C11.428,1.126 12.066,1.898 13.198,2.12 C17.038,2.876 22.731,1.188 27.597,0.886 C33.122,0.543 39.416,0.676 43.231,0.681 C53.066,0.692 63.049,0.656 72.648,0.886 C88.778,1.273 104.259,0.248 119.961,0.475 C124.577,0.541 129.158,1.092 133.743,1.092 C138.259,1.092 142.695,1.285 147.114,1.709 C149.631,2.374 149.414,4.924 150.613,6.441 Z M140.533,7.881 C141.524,11.508 140.739,16.363 140.739,21.046 C140.739,50.443 140.018,78.546 140.533,106.003 C140.626,110.979 141.481,116.116 141.15,121.02 C140.865,125.245 140.234,129.143 140.533,133.363 C118.79,132.494 97.441,132.989 75.324,133.569 C53.161,134.15 31.085,132.855 8.058,134.186 C7.205,129.604 7.77,124.771 7.235,119.992 C6.708,115.278 6.666,110.517 6.823,105.799 C7.254,92.941 7.547,79.73 7.44,67.331 C7.404,63.155 7.918,59.077 8.057,54.989 C8.128,52.904 7.735,50.86 7.851,48.817 C7.956,46.953 8.601,45.276 8.879,43.469 C9.234,41.165 8.75,38.685 8.879,36.269 C8.954,34.865 9.425,33.464 9.496,32.155 C9.563,30.902 9.243,29.743 9.29,28.452 C9.439,24.374 10.854,20.374 11.141,16.11 C11.287,13.942 10.742,11.727 11.553,9.527 C16.885,9.009 22.169,8.303 27.598,7.675 C31.747,7.196 36.198,7.401 40.557,7.264 C49.333,6.989 58.692,7.893 68.328,7.47 C73.007,7.264 77.394,8.036 81.905,7.881 C84.943,7.777 88.331,7.019 91.161,6.853 C97.114,6.503 103.18,7.002 109.058,7.058 C111.928,7.085 114.879,7.013 117.698,7.058 C120.667,7.106 123.452,7.752 126.338,7.881 C131.111,8.094 135.808,6.869 140.533,7.881 Z" id="bg5" fill="#000000"></path>
                <text id="label-ujc" fill="#000000" font-family="Patrick Hand" font-size="30" font-weight="normal">
                    <tspan x="19" y="57">User R. JS</tspan>
                    <tspan x="19" y="97">Controller</tspan>
                </text>
            </g>
            <g id="html-view--to--ur-js-controller" transform="translate(159.000000, 373.000000)" fill="#1E9FCC">
                <path d="M0.939,23.514 C4.438,19.608 8.874,16.638 11.43,11.788 C9.742,7.446 2.002,7.179 2.996,1.503 C6.518,-0.44 8.813,2.121 11.636,4.383 C14.129,6.38 16.149,7.752 19.042,9.114 C19.375,9.769 20.443,11.356 20.276,12.199 C19.975,13.716 16.167,16.817 14.516,17.959 C13.697,18.526 12.909,19.897 11.842,20.839 C10.8,21.76 9.48,22.527 8.756,23.308 C7.608,24.546 6.985,26.293 5.259,26.599 C3.46,26.918 1.108,25.227 0.939,23.514 L0.939,23.514 Z" id="Shape"></path>
                <path d="M8.344,66.506 C9.033,68.491 10.937,69.262 12.458,70.415 C14.043,72.738 16.536,74.153 18.012,76.586 C14.632,81.685 11.167,76.147 7.727,73.295 C5.273,71.261 2.816,70.379 1.556,68.975 C-1.034,66.089 1.709,64.118 3.819,62.393 C7.2,59.627 10.243,56.568 12.459,52.93 C14.013,51.782 15.932,52.184 17.19,53.341 C18.954,56.359 15.929,58.76 14.105,60.746 C12.449,62.548 9.481,64.538 8.344,66.506 L8.344,66.506 Z" id="Shape"></path>
            </g>
            <g id="kitchen-duty-js-controller" transform="translate(183.000000, 510.000000)">
                <rect id="fill6" fill="#FFFFFF" x="6" y="6" width="136" height="132"></rect>
                <path d="M150.144,7.058 C149.929,8.82 149.924,10.904 149.527,12.201 C148.157,16.674 149.07,23.562 148.91,28.864 C148.76,33.841 148.101,38.826 147.881,43.675 C147.789,45.704 148.028,47.725 147.881,49.846 C147.435,56.289 147.64,62.632 147.675,69.183 C147.722,77.802 146.259,86.695 147.469,95.719 C147.097,103.296 146.304,110.815 146.44,117.935 C146.574,124.911 146.286,132.043 148.086,138.3 C147.099,139.164 147.607,141.524 146.646,142.414 C144.852,143.655 142.94,142.646 140.886,142.62 C139.948,142.607 138.979,143.034 138.006,143.031 C135.789,143.025 133.427,142.515 131.012,142.414 C128.649,142.314 126.161,142.707 123.812,142.62 C120.782,142.508 117.796,141.787 114.761,141.797 C111.84,141.807 108.951,142.099 105.915,142.208 C99.868,142.427 93.602,142.186 87.401,142.003 C81.027,141.815 74.551,142.092 68.065,141.797 C64.961,141.656 61.822,141.563 58.603,141.797 C53.963,142.136 49.036,141.483 45.232,142.825 C36.261,141.547 26.943,143.926 18.284,143.648 C15.353,143.554 12.357,143.085 9.439,143.237 C7.808,143.322 5.808,144.103 4.091,143.648 C2.931,143.34 3.181,143.022 2.239,142.002 C1.569,141.277 0.88,141.088 0.593,140.356 C-0.02,138.793 0.593,134.698 0.593,131.51 C0.593,122.425 0.965,113.501 0.799,106.002 C0.52,93.419 0.694,81.874 0.799,71.855 C0.925,59.884 1.005,49.032 1.005,37.09 C1.005,25.098 1.397,13.432 3.062,3.56 C3.916,3.14 4.334,1.161 5.325,0.68 C6.407,0.157 11.912,1.092 14.787,1.092 C18.693,1.091 22.266,0.798 24.867,0.68 C48.819,-0.407 66.826,1.459 90.282,0.886 C101.238,0.618 112.063,1.206 121.755,1.708 C125.484,1.902 129.239,1.669 132.658,1.914 C134.688,2.06 137.269,3.022 139.858,3.148 C140.878,3.198 141.983,3.029 143.149,3.148 C146.909,3.533 147.895,4.477 150.144,7.058 Z M142.533,10.761 C142.061,15.822 142.705,21.125 142.739,26.395 C142.759,29.499 142.193,32.627 141.916,35.857 C140.77,49.232 141.971,63.278 141.093,77.411 C140.876,80.896 140.895,84.22 140.887,87.696 C140.871,94.486 140.931,102.15 140.681,110.118 C140.414,118.632 140.269,127.237 139.858,135.832 C125.137,135.662 107.267,135.241 90.282,135.215 C79.495,135.197 69.208,134.662 58.603,135.009 C52.662,135.203 46.791,134.727 41.118,135.42 C35.555,136.101 29.948,135.807 24.455,136.243 C18.658,136.703 12.983,136.094 7.381,136.037 C6.506,125.969 7.533,115.818 7.381,104.975 C7.349,102.669 6.906,100.528 6.764,98.187 C6.41,92.334 7.229,86.3 7.381,80.291 C7.458,77.263 7.113,74.109 7.175,71.034 C7.441,57.861 7.444,46.171 7.381,32.566 C7.366,29.268 7.958,26.112 7.998,22.898 C8.062,17.809 7.637,12.695 9.438,7.881 C23.856,7.189 38.038,7.969 51.608,7.264 C56.666,7.001 63.039,7.999 68.682,7.881 C83.233,7.574 98.368,7.749 113.526,8.086 C118.824,8.204 124.281,8.106 129.365,8.703 C130.658,8.855 132.118,9.582 133.685,9.732 C136.781,10.029 140.114,9.703 142.533,10.761 Z" id="bg6" fill="#000000"></path>
                <text id="label-kdjc" fill="#000000" font-family="Patrick Hand" font-size="30" font-weight="normal">
                    <tspan x="21" y="60">Kitc. D. JS</tspan>
                    <tspan x="21" y="100">Controller</tspan>
                </text>
            </g>
            <g id="html-view--to--kd-js-controller" transform="translate(156.000000, 542.000000)" fill="#1E9FCC">
                <path d="M18.132,8.794 C18.134,9.546 18.539,9.896 18.955,10.233 C20.098,15.648 15.625,17.637 12.578,21.136 C10.436,23.594 9.323,26.988 5.584,26.484 C4.436,26.33 2.623,24.784 2.498,24.016 C2.178,22.035 5.823,19.685 7.024,18.461 C7.813,17.657 11.307,14.298 11.549,13.112 C12.586,8.045 3.04,6.924 3.115,2.622 C3.17,-0.482 7.417,1.261 9.081,2.21 C12.651,4.248 14.474,6.881 18.132,8.794 L18.132,8.794 Z" id="Shape"></path>
                <path d="M19.161,50.141 C21.447,52.541 19.915,53.579 17.927,55.284 C16.458,56.545 14.634,59.628 12.99,61.045 C11.76,62.105 9.391,62.732 9.082,64.13 C10.442,67.381 16.541,69.637 18.133,72.976 C18.601,73.957 18.31,74.94 18.133,75.856 C10.087,80.832 8.79,67.607 2.499,66.393 C1.784,65.462 0.877,64.724 0.236,63.719 C0.461,61.105 3.685,60.193 5.79,58.37 C9.782,54.915 11.984,49.454 19.161,50.141 L19.161,50.141 Z" id="Shape"></path>
            </g>
            <g id="webwork-action" transform="translate(1.000000, 159.000000)">
                <rect id="fill" fill="#FFFFFF" x="4" y="5" width="321" height="80"></rect>
                <path d="M328.853,88.993 C326.104,89.985 323.314,88.787 320.419,88.787 C311.169,88.787 301.709,88.222 292.031,88.375 C285.278,88.482 278.36,88.18 271.46,87.964 C265.279,87.77 259.02,88.297 252.946,88.17 C239.792,87.894 226.466,87.837 213.039,87.347 C199.728,86.861 186.055,86.555 172.721,87.141 C145.765,88.326 118.962,88.787 92.701,88.787 C79.676,88.787 66.269,88.783 52.999,89.815 C46.326,90.335 39.528,90.863 32.84,91.049 C29.461,91.143 25.942,91.603 22.554,91.461 C19.227,91.321 15.927,91.01 12.68,91.255 C10.046,91.454 5.917,92.676 3.423,91.255 C2.61,90.792 1.327,88.488 0.955,86.73 C0.363,83.933 1.226,80.251 1.161,76.65 C0.973,66.315 1.48,55.478 0.75,44.765 C-0.125,31.931 -0.359,20.691 0.956,8.766 C1.093,7.522 0.636,5.475 2.19,4.857 C3.816,2.681 6.253,3.982 7.744,4.034 C17.577,4.378 27.619,3.6 37.778,3.623 C48.223,3.646 58.807,3.091 69.662,2.594 C79.303,2.153 89.062,2.388 99.079,2.388 C109.571,2.388 120.301,3.012 130.758,2.594 C151.258,1.775 172.36,1.074 192.676,1.36 C214.205,1.663 235.105,2.385 255.622,1.154 C268.335,0.392 281.051,1.615 292.649,1.566 C297.678,1.545 304.271,2.09 310.34,2.183 C317.036,2.285 327.944,0.914 329.471,6.091 C329.795,7.191 329.489,9.11 329.471,10.822 C329.359,21.237 329.455,32.896 329.471,44.146 C329.475,47.043 328.694,50.21 328.648,53.403 C328.625,55.053 328.795,56.89 328.854,58.546 C328.961,61.564 329.027,65.532 329.265,69.654 C329.384,71.713 329.084,73.545 329.059,75.62 C329.03,78.064 329.209,80.599 329.059,83.025 C329.023,83.61 328.639,84.192 328.647,84.671 C328.673,86.027 329.849,87.452 328.853,88.993 Z M322.476,9.384 C323.333,23.299 322.653,37.641 322.27,52.377 C322.022,61.921 322.633,72.152 322.27,82.205 C297.922,81.766 273.192,82.205 248.216,82.205 C229.102,82.205 209.624,80.765 191.029,80.765 C171.976,80.765 153.605,81.801 134.665,81.999 C128.134,82.068 121.455,81.927 114.917,82.205 C96.004,83.008 77.345,82.149 58.759,83.028 C41.83,83.828 25.997,85.486 8.567,84.468 C8.717,73.887 8.228,63.173 8.567,52.172 C8.733,46.788 7.958,41.185 7.744,35.715 C7.591,31.775 7.766,27.955 7.744,23.784 C7.725,20.112 7.257,15.111 8.156,10.825 C19.892,9.936 31.621,10.122 43.332,9.796 C49.249,9.631 55.341,9.967 61.228,9.59 C88.558,7.84 116.271,8.84 143.922,8.356 C171.479,7.874 203.759,7.048 229.702,7.945 C233.392,8.072 237.21,7.797 241.016,7.739 C244.914,7.679 249.488,7.394 252.947,7.328 C269.434,7.012 287.642,7.786 305.814,8.356 C308.839,8.451 311.824,8.519 314.66,8.768 C317.347,9.003 319.931,9.924 322.476,9.384 Z" id="bg0" fill="#000000"></path>
                <text id="label-wwa" fill="#000000" font-family="Patrick Hand" font-size="30" font-weight="normal">
                    <tspan x="49.775" y="36">Kitchen Duty Planning</tspan>
                    <tspan x="85.685" y="76">Webwork Action</tspan>
                </text>
            </g>
            <g id="webwork-action--to--html-view" transform="translate(49.000000, 266.000000)" fill="#1E9FCC">
                <path d="M24.542,12.438 C20.99,16.483 17.915,10.125 15.08,8.941 C14.31,9.391 14.432,10.536 14.257,11.41 C13.684,14.279 13.221,18.423 14.463,21.49 C14.11,24.066 14.425,26.552 14.257,29.307 C14.128,31.427 14.87,33.073 15.08,35.272 C15.292,37.5 14.776,39.784 14.874,42.061 C14.957,43.977 15.845,45.833 16.108,47.821 C16.576,51.364 16.072,54.805 15.079,58.106 C12.936,59.533 9.613,58.314 9.114,56.049 C8.796,54.605 9.519,53.871 9.731,52.346 C9.804,51.822 9.47,51.164 9.525,50.494 C9.653,48.929 10.38,47.502 10.142,45.763 C9.932,44.227 9.246,42.782 9.114,40.826 C8.87,37.243 8.778,33.092 8.497,29.306 C8.22,25.579 8.911,21.959 8.497,18.815 C8.397,18.058 7.944,17.263 7.88,16.552 C7.76,15.222 8.707,13.483 7.674,12.438 C6.064,12 6.767,13.882 5.411,14.495 C3.405,15.402 0.494,13.909 0.268,12.438 C-0.079,10.174 3.095,8.386 4.588,6.473 C6.851,3.571 7.375,1.782 9.731,0.507 C12.586,0.32 15.023,2.255 17.342,4.416 C20.252,7.125 22.995,9.002 24.542,12.438 L24.542,12.438 Z" id="Shape"></path>
                <path d="M58.895,49.259 C61.458,48.972 61.033,46.099 63.215,45.762 C65.187,45.457 66.969,47.067 66.712,49.465 C66.452,51.889 63.67,53.24 61.981,55.225 C60.829,56.578 60.373,58.31 59.101,58.928 C53.275,61.757 51.887,55.415 49.639,52.551 C48.086,50.573 45.615,49.12 45.936,46.174 C48.035,44.697 50.156,46.519 52.313,46.791 C53.42,42.924 53.82,39.31 53.959,35.066 C54.002,33.753 53.401,32.635 53.342,31.363 C53.27,29.816 53.78,28.173 53.548,26.22 C53.241,23.639 52.38,21.095 52.725,18.609 C52.795,18.1 53.31,17.501 53.342,16.963 C53.383,16.28 52.908,15.549 52.93,14.906 C52.977,13.543 53.678,12.033 53.753,10.586 C53.896,7.827 53.543,5.155 54.37,2.152 C58.895,1.013 58.651,6.216 58.484,10.38 C58.381,12.941 58.46,15.896 58.278,18.814 C58.178,20.421 57.986,22.36 58.072,23.751 C58.137,24.81 58.696,25.433 58.895,26.836 C60.089,35.25 58.26,43.418 58.895,49.259 L58.895,49.259 Z" id="Shape"></path>
            </g>
        </g>
    </g>
</svg>